<svg width="123" height="48" viewBox="0 0 123 48" fill="none" xmlns="http://www.w3.org/2000/svg">
<g filter="url(#filter0_d_105_765)">
<path d="M1 19.5C1 8.73045 9.73045 0 20.5 0H96.5C107.27 0 116 8.73045 116 19.5C116 30.2696 107.27 39 96.5 39H20.5C9.73045 39 1 30.2696 1 19.5Z" fill="#C1D200"/>
<path d="M17.2992 10.6875H18.9047L25.7836 27H23.3461L21.6937 22.8984H14.4516L12.8109 27H10.4203L17.2992 10.6875ZM20.9437 21.0234L18.0844 13.875L15.2133 21.0234H20.9437ZM43.5891 25.6523C42.9172 26.1758 42.1555 26.5625 41.3039 26.8125C40.4602 27.0547 39.5461 27.1758 38.5617 27.1758C37.5852 27.1758 36.4914 27.1172 35.2805 27V9.5625H37.6242V16.1133C38.1398 15.5273 38.8547 15.1094 39.7687 14.8594C40.1125 14.7656 40.4641 14.7188 40.8234 14.7188C41.1906 14.7188 41.5617 14.7578 41.9367 14.8359C42.3117 14.9062 42.6828 15.0312 43.05 15.2109C43.425 15.3906 43.7805 15.6289 44.1164 15.9258C44.4523 16.2227 44.7492 16.5938 45.007 17.0391C45.5773 17.9922 45.8625 19.125 45.8625 20.4375C45.8625 21.7422 45.6516 22.8047 45.2297 23.625C44.8156 24.4453 44.2687 25.1211 43.5891 25.6523ZM37.6359 25.2773C37.8547 25.3398 38.2844 25.3711 38.925 25.3711C39.5656 25.3711 40.1672 25.2812 40.7297 25.1016C41.2922 24.9219 41.7727 24.6406 42.1711 24.2578C43.007 23.4531 43.425 22.2539 43.425 20.6602C43.425 18.7148 42.8586 17.4414 41.7258 16.8398C41.3195 16.6289 40.9055 16.5234 40.4836 16.5234C40.0617 16.5234 39.6945 16.5781 39.382 16.6875C39.0695 16.7969 38.7961 16.9297 38.5617 17.0859C38.1164 17.3906 37.8078 17.7188 37.6359 18.0703V25.2773ZM55.5117 20.9297C55.5117 19.0312 56.1172 17.4922 57.3281 16.3125C58.4609 15.2109 59.8633 14.6602 61.5352 14.6602C63.1758 14.6602 64.5469 15.2109 65.6484 16.3125C66.8203 17.4844 67.4062 19.0234 67.4062 20.9297C67.4062 22.8281 66.8164 24.3594 65.6367 25.5234C64.5195 26.6328 63.1484 27.1875 61.5234 27.1875C59.875 27.1875 58.4766 26.6328 57.3281 25.5234C56.1172 24.3594 55.5117 22.8281 55.5117 20.9297ZM57.9492 20.9297C57.9492 22.9297 58.5898 24.2891 59.8711 25.0078C60.3242 25.2578 60.8672 25.3828 61.5 25.3828C62.1328 25.3828 62.668 25.2578 63.1055 25.0078C63.543 24.75 63.9023 24.4141 64.1836 24C64.707 23.2031 64.9688 22.1797 64.9688 20.9297C64.9688 18.9453 64.3398 17.5859 63.082 16.8516C62.6445 16.5938 62.1211 16.4648 61.5117 16.4648C60.9023 16.4648 60.3711 16.5938 59.918 16.8516C59.4727 17.1016 59.1055 17.4336 58.8164 17.8477C58.2383 18.6602 57.9492 19.6875 57.9492 20.9297ZM85.3758 24.0352V14.9062H87.7195V27H85.6102L85.3992 25.7227C84.243 26.6992 82.9656 27.1875 81.5672 27.1875C80.0828 27.1875 79.032 26.7773 78.4148 25.957C77.7742 25.1211 77.4539 23.6797 77.4539 21.6328V14.9062H79.7977V21.5156C79.7977 22.9609 80.0047 23.9453 80.4187 24.4688C80.7859 24.9375 81.4852 25.1719 82.5164 25.1719C83.5555 25.1719 84.5086 24.793 85.3758 24.0352ZM103.052 25.1484C103.31 25.2422 103.701 25.2891 104.224 25.2891C104.748 25.2891 105.185 25.2266 105.537 25.1016V26.9766C105.373 27.0156 105.134 27.0391 104.822 27.0469L104.084 27.0703C103.92 27.0703 103.795 27.0703 103.709 27.0703C102.201 27.0703 101.088 26.5781 100.369 25.5938C99.7906 24.7969 99.5016 23.7422 99.5016 22.4297V16.6992H97.7672V15.5977L99.5016 14.9062L100.064 11.9062H101.845V14.9062H105.595V16.6992H101.845V22.418C101.845 23.9492 102.248 24.8594 103.052 25.1484Z" fill="black"/>
</g>
<defs>
<filter id="filter0_d_105_765" x="0" y="0" width="123" height="48" filterUnits="userSpaceOnUse" color-interpolation-filters="sRGB">
<feFlood flood-opacity="0" result="BackgroundImageFix"/>
<feColorMatrix in="SourceAlpha" type="matrix" values="0 0 0 0 0 0 0 0 0 0 0 0 0 0 0 0 0 0 127 0" result="hardAlpha"/>
<feOffset dx="3" dy="5"/>
<feGaussianBlur stdDeviation="2"/>
<feComposite in2="hardAlpha" operator="out"/>
<feColorMatrix type="matrix" values="0 0 0 0 0 0 0 0 0 0 0 0 0 0 0 0 0 0 0.25 0"/>
<feBlend mode="normal" in2="BackgroundImageFix" result="effect1_dropShadow_105_765"/>
<feBlend mode="normal" in="SourceGraphic" in2="effect1_dropShadow_105_765" result="shape"/>
</filter>
</defs>
</svg>
