<svg width="207" height="50" viewBox="0 0 207 50" fill="none" xmlns="http://www.w3.org/2000/svg">
<g filter="url(#filter0_d_298_104)">
<path d="M17.3166 41.5C16.2126 41.5 15.1446 41.044 14.1126 40.132C13.1046 39.22 12.2526 37.9 11.5566 36.172C10.8846 34.444 10.4886 32.356 10.3686 29.908C9.62463 29.98 8.94063 30.016 8.31663 30.016C6.92463 30.016 5.90463 29.836 5.25663 29.476C4.63263 29.116 4.32063 28.648 4.32063 28.072C4.32063 27.496 4.59663 26.86 5.14863 26.164C5.70063 25.468 6.46863 24.772 7.45263 24.076C8.43663 23.356 9.58863 22.708 10.9086 22.132C11.3646 19.684 12.0966 17.044 13.1046 14.212C14.1366 11.356 15.5166 8.332 17.2446 5.14C17.4126 4.828 17.6646 4.672 18.0006 4.672C18.2166 4.672 18.4086 4.744 18.5766 4.888C18.7446 5.032 18.8286 5.224 18.8286 5.464C18.8286 5.584 18.7926 5.74 18.7206 5.932C17.1846 9.028 15.9006 11.872 14.8686 14.464C13.8606 17.032 13.0686 19.384 12.4926 21.52C13.5726 21.112 14.7246 20.776 15.9486 20.512C17.1726 20.248 18.4206 20.092 19.6926 20.044C20.0286 20.044 20.1966 20.092 20.1966 20.188C20.1966 20.284 20.0766 20.38 19.8366 20.476C19.6206 20.548 19.2486 20.596 18.7206 20.62C17.5446 20.692 16.4166 20.86 15.3366 21.124C14.2806 21.364 13.2846 21.664 12.3486 22.024C11.9886 23.416 11.7126 24.712 11.5206 25.912C11.3286 27.088 11.2086 28.18 11.1606 29.188C13.6326 28.66 15.8766 27.892 17.8926 26.884C19.9326 25.852 21.7326 24.664 23.2926 23.32C24.8526 21.976 26.1606 20.584 27.2166 19.144C27.8886 18.232 28.3686 17.428 28.6566 16.732C28.9686 16.012 29.1246 15.388 29.1246 14.86C29.1246 14.092 28.8846 13.492 28.4046 13.06C27.9246 12.604 27.2886 12.28 26.4966 12.088C25.7046 11.872 24.8406 11.764 23.9046 11.764C22.9206 11.764 21.9246 11.86 20.9166 12.052C19.9086 12.22 18.9966 12.46 18.1806 12.772C17.9886 12.82 17.8566 12.844 17.7846 12.844C17.4726 12.844 17.3166 12.736 17.3166 12.52C17.3166 12.304 17.4486 12.136 17.7126 12.016C20.6646 10.336 22.7646 8.812 24.0126 7.444C25.2606 6.076 25.8846 4.924 25.8846 3.988C25.8846 3.172 25.5006 2.548 24.7326 2.116C23.9886 1.66 23.0046 1.432 21.7806 1.432C20.8206 1.432 19.7406 1.588 18.5406 1.9C17.3406 2.212 16.1046 2.716 14.8326 3.412C13.7766 3.988 12.8166 4.672 11.9526 5.464C11.1126 6.232 10.3926 7.036 9.79263 7.876C9.21663 8.692 8.78463 9.472 8.49663 10.216C8.20863 10.936 8.10063 11.548 8.17263 12.052C8.17263 12.1 8.17263 12.16 8.17263 12.232C8.19663 12.28 8.20863 12.328 8.20863 12.376C8.20863 12.976 8.02863 13.276 7.66863 13.276C7.50063 13.276 7.32063 13.156 7.12863 12.916C6.96063 12.676 6.87663 12.316 6.87663 11.836C6.87663 11.116 7.09263 10.348 7.52463 9.532C7.98063 8.716 8.58063 7.9 9.32463 7.084C10.0926 6.244 10.9446 5.464 11.8806 4.744C12.8166 4 13.7886 3.364 14.7966 2.836C16.0926 2.14 17.3646 1.624 18.6126 1.288C19.8846 0.951998 21.0486 0.783998 22.1046 0.783998C23.5686 0.783998 24.7566 1.072 25.6686 1.648C26.5806 2.224 27.0366 3.028 27.0366 4.06C27.0366 5.02 26.5686 6.136 25.6326 7.408C24.6966 8.68 23.1246 10.084 20.9166 11.62C21.6606 11.5 22.3566 11.416 23.0046 11.368C23.6526 11.296 24.2526 11.26 24.8046 11.26C26.8686 11.26 28.3566 11.608 29.2686 12.304C30.2046 12.976 30.6726 13.852 30.6726 14.932C30.6726 15.724 30.4446 16.588 29.9886 17.524C29.5566 18.436 28.9446 19.384 28.1526 20.368C27.0006 21.784 25.5486 23.152 23.7966 24.472C22.0686 25.792 20.1246 26.932 17.9646 27.892C15.8286 28.852 13.5486 29.5 11.1246 29.836C11.0766 31.972 11.2686 33.736 11.7006 35.128C12.1566 36.52 12.7326 37.6 13.4286 38.368C14.1246 39.16 14.8206 39.712 15.5166 40.024C16.2126 40.36 16.7886 40.528 17.2446 40.528C17.5806 40.528 17.8086 40.468 17.9286 40.348C18.0246 40.228 18.1686 40.168 18.3606 40.168C18.5526 40.168 18.7326 40.24 18.9006 40.384C19.0686 40.528 19.1526 40.684 19.1526 40.852C19.1526 40.996 19.0686 41.104 18.9006 41.176C18.3726 41.392 17.8446 41.5 17.3166 41.5ZM8.46063 29.548C8.72463 29.548 9.01263 29.524 9.32463 29.476C9.63663 29.452 9.97263 29.416 10.3326 29.368C10.3086 28.36 10.3326 27.304 10.4046 26.2C10.4766 25.096 10.6086 23.944 10.8006 22.744C9.26463 23.536 8.05263 24.424 7.16463 25.408C6.27663 26.368 5.83263 27.22 5.83263 27.964C5.83263 28.42 6.04863 28.792 6.48063 29.08C6.91263 29.392 7.57263 29.548 8.46063 29.548ZM46.6662 29.8C45.8982 29.8 45.3102 29.44 44.9022 28.72C44.4942 28.024 44.2902 27.256 44.2902 26.416C44.2902 25.624 44.4222 24.796 44.6862 23.932C44.9502 23.068 45.2742 22.216 45.6582 21.376C46.0662 20.536 46.4862 19.768 46.9182 19.072C46.4862 19.24 46.0782 19.324 45.6942 19.324C45.5022 19.324 45.3342 19.3 45.1902 19.252C45.0462 19.204 44.9262 19.168 44.8302 19.144C44.7102 19.432 44.4942 19.912 44.1822 20.584C43.8942 21.256 43.5822 21.964 43.2462 22.708C42.9342 23.428 42.6582 24.04 42.4182 24.544C42.0342 25.36 41.6982 25.768 41.4102 25.768C41.2662 25.768 41.1942 25.672 41.1942 25.48C41.1942 25.336 41.2542 25.144 41.3742 24.904C41.9262 23.872 42.4422 22.852 42.9222 21.844C43.4262 20.836 43.8822 19.864 44.2902 18.928C44.2422 18.808 44.1942 18.652 44.1462 18.46C44.0982 18.244 44.0742 18.016 44.0742 17.776C44.0742 17.512 44.0982 17.236 44.1462 16.948C44.2182 16.636 44.3142 16.336 44.4342 16.048C44.5062 15.88 44.6382 15.64 44.8302 15.328C45.0222 14.992 45.2382 14.692 45.4782 14.428C45.7182 14.14 45.9462 13.996 46.1622 13.996C46.5702 13.996 46.7742 14.212 46.7742 14.644C46.7742 15.052 46.6422 15.52 46.3782 16.048C46.1382 16.576 45.8862 17.068 45.6222 17.524C45.3582 17.956 45.2262 18.28 45.2262 18.496C45.2262 18.688 45.3222 18.784 45.5142 18.784C45.7782 18.784 46.1022 18.652 46.4862 18.388C46.8942 18.1 47.2182 17.836 47.4582 17.596C47.5782 17.476 47.7702 17.296 48.0342 17.056C48.2982 16.792 48.5502 16.66 48.7902 16.66C49.0302 16.66 49.1862 16.732 49.2582 16.876C49.3542 17.02 49.4022 17.188 49.4022 17.38C49.4022 17.596 49.3062 17.872 49.1142 18.208C48.9222 18.52 48.6942 18.832 48.4302 19.144C48.1902 19.456 47.9862 19.72 47.8182 19.936C47.4822 20.44 47.0982 21.076 46.6662 21.844C46.2342 22.612 45.8622 23.44 45.5502 24.328C45.2382 25.192 45.0822 26.02 45.0822 26.812C45.0822 27.34 45.2142 27.892 45.4782 28.468C45.7422 29.044 46.1022 29.332 46.5582 29.332C46.9662 29.332 47.3982 29.116 47.8542 28.684C48.3342 28.252 48.7782 27.736 49.1862 27.136C49.6182 26.536 49.9902 25.96 50.3022 25.408C50.6382 24.856 50.8662 24.472 50.9862 24.256C51.0342 24.136 51.1182 23.992 51.2382 23.824C51.3582 23.632 51.5022 23.536 51.6702 23.536C51.8142 23.536 51.8862 23.608 51.8862 23.752C51.8862 23.872 51.8502 24.016 51.7782 24.184C51.7302 24.328 51.6822 24.46 51.6342 24.58C51.4182 25.084 51.1542 25.612 50.8422 26.164C50.5302 26.716 50.3142 27.088 50.1942 27.28C49.8582 27.832 49.3542 28.384 48.6822 28.936C48.0342 29.512 47.3622 29.8 46.6662 29.8ZM65.1283 28.468C64.2643 28.468 63.5083 27.964 62.8603 26.956C62.2363 25.924 61.9243 24.304 61.9243 22.096C61.9243 20.656 62.1043 19.504 62.4643 18.64C62.8243 17.752 63.2683 17.104 63.7963 16.696C64.3243 16.288 64.8283 16.084 65.3083 16.084C65.7883 16.084 66.1963 16.252 66.5323 16.588C66.8683 16.9 67.0363 17.356 67.0363 17.956C67.0363 18.532 66.8683 19.144 66.5323 19.792C66.1963 20.416 65.7883 20.992 65.3083 21.52C64.8523 22.024 64.3963 22.36 63.9403 22.528C63.8443 22.576 63.7243 22.6 63.5803 22.6C63.4843 22.6 63.4363 22.564 63.4363 22.492C63.4363 22.3 63.6283 22.084 64.0123 21.844C64.4923 21.508 64.9483 21.004 65.3803 20.332C65.8123 19.636 66.0283 19.024 66.0283 18.496C66.0283 18.184 65.9563 17.944 65.8123 17.776C65.6683 17.584 65.5003 17.488 65.3083 17.488C64.9483 17.488 64.5523 17.776 64.1203 18.352C63.7123 18.904 63.4123 19.864 63.2203 21.232C63.1723 21.616 63.1243 21.988 63.0763 22.348C63.0523 22.684 63.0403 23.02 63.0403 23.356C63.0403 24.7 63.2443 25.756 63.6523 26.524C64.0603 27.268 64.6003 27.64 65.2723 27.64C65.8483 27.64 66.4963 27.304 67.2163 26.632C67.9363 25.936 68.6443 24.856 69.3403 23.392C69.5083 23.008 69.7003 22.816 69.9163 22.816C70.0603 22.816 70.1323 22.912 70.1323 23.104C70.1323 23.272 70.0843 23.452 69.9883 23.644C69.3643 25.18 68.6083 26.368 67.7203 27.208C66.8323 28.048 65.9683 28.468 65.1283 28.468ZM80.545 27.712C80.161 27.712 79.837 27.508 79.573 27.1C79.381 26.764 79.285 26.368 79.285 25.912C79.285 25.264 79.429 24.532 79.717 23.716C80.005 22.9 80.389 22.108 80.869 21.34C81.373 20.572 81.925 19.924 82.525 19.396C83.149 18.844 83.785 18.52 84.433 18.424C84.673 18.4 84.961 18.46 85.297 18.604C85.633 18.748 85.909 18.928 86.125 19.144C86.173 18.904 86.209 18.676 86.233 18.46C86.257 18.22 86.269 17.992 86.269 17.776C86.269 17.104 86.161 16.504 85.945 15.976C85.729 15.448 85.345 15.1 84.793 14.932C84.577 14.86 84.337 14.824 84.073 14.824C83.929 14.824 83.773 14.848 83.605 14.896C83.437 14.92 83.257 14.992 83.065 15.112C82.873 15.208 82.681 15.364 82.489 15.58C82.297 15.772 82.165 15.952 82.093 16.12C82.045 16.216 81.925 16.432 81.733 16.768C81.541 17.08 81.385 17.224 81.265 17.2C81.169 17.176 81.121 17.092 81.121 16.948C81.121 16.876 81.145 16.768 81.193 16.624C81.337 16.168 81.613 15.784 82.021 15.472C82.429 15.136 82.873 14.872 83.353 14.68C83.833 14.464 84.229 14.344 84.541 14.32C84.613 14.32 84.685 14.32 84.757 14.32C84.829 14.296 84.889 14.284 84.937 14.284C85.321 14.284 85.669 14.344 85.981 14.464C86.317 14.56 86.581 14.692 86.773 14.86C87.085 15.1 87.337 15.412 87.529 15.796C87.721 16.156 87.817 16.612 87.817 17.164C87.817 17.332 87.805 17.512 87.781 17.704C87.757 17.896 87.721 18.088 87.673 18.28C87.601 18.664 87.505 19.156 87.385 19.756C87.289 20.332 87.181 20.932 87.061 21.556C86.965 22.18 86.881 22.756 86.809 23.284C86.761 23.788 86.737 24.148 86.737 24.364C86.737 24.604 86.809 24.88 86.953 25.192C87.121 25.48 87.337 25.624 87.601 25.624C87.745 25.624 87.901 25.552 88.069 25.408C88.261 25.264 88.453 25.024 88.645 24.688C88.765 24.496 88.873 24.4 88.969 24.4C89.089 24.4 89.149 24.472 89.149 24.616C89.149 24.808 89.053 25.036 88.861 25.3C88.405 25.948 87.829 26.272 87.133 26.272C86.557 26.272 86.149 26.032 85.909 25.552C85.501 24.76 85.297 24.052 85.297 23.428C85.297 22.78 85.285 22.336 85.261 22.096C85.141 22.384 84.913 22.84 84.577 23.464C84.241 24.064 83.845 24.7 83.389 25.372C82.933 26.02 82.453 26.572 81.949 27.028C81.445 27.484 80.977 27.712 80.545 27.712ZM81.121 26.632C81.361 26.632 81.637 26.512 81.949 26.272C82.285 26.032 82.633 25.66 82.993 25.156C83.473 24.46 83.917 23.68 84.325 22.816C84.733 21.952 85.105 21.112 85.441 20.296C85.153 19.6 84.793 19.252 84.361 19.252C83.977 19.252 83.569 19.456 83.137 19.864C82.705 20.272 82.297 20.74 81.913 21.268C81.433 21.988 81.049 22.708 80.761 23.428C80.497 24.148 80.365 24.76 80.365 25.264C80.365 26.176 80.617 26.632 81.121 26.632ZM97.9347 33.22C97.6947 33.22 97.5027 33.148 97.3587 33.004C97.1907 32.86 97.1667 32.692 97.2867 32.5C97.6227 31.996 97.9467 31.276 98.2587 30.34C98.5467 29.428 98.7987 28.468 99.0147 27.46C99.2547 26.452 99.4467 25.54 99.5907 24.724C99.7587 23.884 99.8787 23.296 99.9507 22.96C99.5187 22.552 99.3027 22.096 99.3027 21.592C99.3027 21.208 99.3867 20.884 99.5547 20.62C99.7467 20.356 99.8907 20.236 99.9867 20.26C100.035 20.26 100.095 20.284 100.167 20.332C100.263 20.356 100.311 20.392 100.311 20.44C100.455 19.312 100.575 18.196 100.671 17.092C100.767 15.964 100.815 14.932 100.815 13.996C100.815 13.228 100.779 12.544 100.707 11.944C100.635 11.344 100.527 10.864 100.383 10.504C100.239 10.144 100.167 9.868 100.167 9.676C100.167 9.412 100.239 9.28 100.383 9.28C100.551 9.28 100.683 9.388 100.779 9.604C101.043 10.132 101.235 10.96 101.355 12.088C101.499 13.216 101.571 14.5 101.571 15.94C101.571 16.924 101.547 17.968 101.499 19.072C101.451 20.152 101.367 21.232 101.247 22.312C101.679 21.928 102.123 21.556 102.579 21.196C103.035 20.812 103.431 20.416 103.767 20.008V19.972C103.767 19.924 103.743 19.876 103.695 19.828C103.671 19.78 103.659 19.708 103.659 19.612C103.659 19.444 103.779 19.24 104.019 19C104.259 18.76 104.571 18.424 104.955 17.992C105.363 17.536 105.783 17.128 106.215 16.768C106.647 16.384 107.043 16.204 107.403 16.228C107.691 16.228 107.835 16.324 107.835 16.516C107.835 16.732 107.631 17.056 107.223 17.488C106.815 17.92 106.323 18.376 105.747 18.856C105.195 19.336 104.679 19.78 104.199 20.188C103.743 20.572 103.443 20.836 103.299 20.98L101.931 22.492L101.211 23.248C101.523 24.04 101.883 24.82 102.291 25.588C102.699 26.356 103.155 26.992 103.659 27.496C104.187 28 104.727 28.252 105.279 28.252C105.855 28.252 106.443 27.904 107.043 27.208C107.451 26.704 107.799 26.14 108.087 25.516C108.375 24.892 108.615 24.424 108.807 24.112C108.927 23.872 109.047 23.716 109.167 23.644C109.287 23.548 109.383 23.5 109.455 23.5C109.623 23.5 109.683 23.62 109.635 23.86C109.539 24.172 109.371 24.568 109.131 25.048C108.891 25.528 108.651 25.984 108.411 26.416C108.195 26.824 108.027 27.112 107.907 27.28C107.451 27.952 106.995 28.444 106.539 28.756C106.083 29.068 105.639 29.224 105.207 29.224C104.655 29.224 104.115 29.02 103.587 28.612C103.059 28.204 102.567 27.676 102.111 27.028C101.679 26.38 101.283 25.696 100.923 24.976C100.659 26.8 100.335 28.432 99.9507 29.872C99.5667 31.336 99.1467 32.344 98.6907 32.896C98.4747 33.112 98.2227 33.22 97.9347 33.22ZM113.371 38.044C112.843 38.044 112.423 37.912 112.111 37.648C111.775 37.408 111.607 37.12 111.607 36.784C111.607 36.592 111.667 36.412 111.787 36.244C111.883 36.1 112.015 36.028 112.183 36.028C112.447 36.028 112.639 36.124 112.759 36.316C112.879 36.532 112.999 36.748 113.119 36.964C113.263 37.252 113.491 37.396 113.803 37.396C114.259 37.396 114.823 37.132 115.495 36.604C116.479 35.86 117.283 34.9 117.907 33.724C118.507 32.572 119.035 31.336 119.491 30.016C120.067 28.384 120.523 26.512 120.859 24.4C121.219 22.288 121.567 20.164 121.903 18.028C121.615 18.052 121.327 18.088 121.039 18.136C120.751 18.16 120.475 18.184 120.211 18.208C120.139 18.208 120.031 18.136 119.887 17.992C119.743 17.848 119.623 17.704 119.527 17.56C119.455 17.392 119.455 17.308 119.527 17.308C120.415 17.212 121.255 17.14 122.047 17.092C122.215 16.036 122.395 15.004 122.587 13.996C122.779 12.964 122.995 11.992 123.235 11.08C123.475 10.168 123.787 9.232 124.171 8.272C124.579 7.312 125.047 6.508 125.575 5.86C126.127 5.188 126.739 4.852 127.411 4.852C127.963 4.852 128.491 5.032 128.995 5.392C129.499 5.752 129.751 6.292 129.751 7.012C129.751 7.396 129.643 7.852 129.427 8.38C129.211 8.908 128.839 9.484 128.311 10.108C128.239 10.18 128.191 10.216 128.167 10.216C128.071 10.216 128.023 10.12 128.023 9.928C128.023 9.736 128.071 9.58 128.167 9.46C128.719 8.74 128.995 8.08 128.995 7.48C128.995 6.784 128.695 6.436 128.095 6.436C127.567 6.436 126.979 6.832 126.331 7.624C125.683 8.416 125.107 9.7 124.603 11.476C124.411 12.148 124.231 12.916 124.063 13.78C123.895 14.644 123.679 15.604 123.415 16.66L123.307 17.092C124.123 17.092 124.831 17.14 125.431 17.236C126.055 17.308 126.523 17.392 126.835 17.488C126.907 17.512 126.943 17.56 126.943 17.632C126.943 17.752 126.871 17.812 126.727 17.812C126.223 17.812 125.659 17.824 125.035 17.848C124.435 17.872 123.811 17.908 123.163 17.956C122.779 20.116 122.371 22.3 121.939 24.508C121.531 26.716 121.015 28.684 120.391 30.412C119.815 32.02 119.143 33.448 118.375 34.696C117.583 35.944 116.683 36.844 115.675 37.396C114.859 37.828 114.091 38.044 113.371 38.044ZM137.695 27.712C137.311 27.712 136.987 27.508 136.723 27.1C136.531 26.764 136.435 26.368 136.435 25.912C136.435 25.264 136.579 24.532 136.867 23.716C137.155 22.9 137.539 22.108 138.019 21.34C138.523 20.572 139.075 19.924 139.675 19.396C140.299 18.844 140.935 18.52 141.583 18.424C141.823 18.4 142.111 18.46 142.447 18.604C142.783 18.748 143.059 18.928 143.275 19.144C143.323 18.904 143.359 18.676 143.383 18.46C143.407 18.22 143.419 17.992 143.419 17.776C143.419 17.104 143.311 16.504 143.095 15.976C142.879 15.448 142.495 15.1 141.943 14.932C141.727 14.86 141.487 14.824 141.223 14.824C141.079 14.824 140.923 14.848 140.755 14.896C140.587 14.92 140.407 14.992 140.215 15.112C140.023 15.208 139.831 15.364 139.639 15.58C139.447 15.772 139.315 15.952 139.243 16.12C139.195 16.216 139.075 16.432 138.883 16.768C138.691 17.08 138.535 17.224 138.415 17.2C138.319 17.176 138.271 17.092 138.271 16.948C138.271 16.876 138.295 16.768 138.343 16.624C138.487 16.168 138.763 15.784 139.171 15.472C139.579 15.136 140.023 14.872 140.503 14.68C140.983 14.464 141.379 14.344 141.691 14.32C141.763 14.32 141.835 14.32 141.907 14.32C141.979 14.296 142.039 14.284 142.087 14.284C142.471 14.284 142.819 14.344 143.131 14.464C143.467 14.56 143.731 14.692 143.923 14.86C144.235 15.1 144.487 15.412 144.679 15.796C144.871 16.156 144.967 16.612 144.967 17.164C144.967 17.332 144.955 17.512 144.931 17.704C144.907 17.896 144.871 18.088 144.823 18.28C144.751 18.664 144.655 19.156 144.535 19.756C144.439 20.332 144.331 20.932 144.211 21.556C144.115 22.18 144.031 22.756 143.959 23.284C143.911 23.788 143.887 24.148 143.887 24.364C143.887 24.604 143.959 24.88 144.103 25.192C144.271 25.48 144.487 25.624 144.751 25.624C144.895 25.624 145.051 25.552 145.219 25.408C145.411 25.264 145.603 25.024 145.795 24.688C145.915 24.496 146.023 24.4 146.119 24.4C146.239 24.4 146.299 24.472 146.299 24.616C146.299 24.808 146.203 25.036 146.011 25.3C145.555 25.948 144.979 26.272 144.283 26.272C143.707 26.272 143.299 26.032 143.059 25.552C142.651 24.76 142.447 24.052 142.447 23.428C142.447 22.78 142.435 22.336 142.411 22.096C142.291 22.384 142.063 22.84 141.727 23.464C141.391 24.064 140.995 24.7 140.539 25.372C140.083 26.02 139.603 26.572 139.099 27.028C138.595 27.484 138.127 27.712 137.695 27.712ZM138.271 26.632C138.511 26.632 138.787 26.512 139.099 26.272C139.435 26.032 139.783 25.66 140.143 25.156C140.623 24.46 141.067 23.68 141.475 22.816C141.883 21.952 142.255 21.112 142.591 20.296C142.303 19.6 141.943 19.252 141.511 19.252C141.127 19.252 140.719 19.456 140.287 19.864C139.855 20.272 139.447 20.74 139.063 21.268C138.583 21.988 138.199 22.708 137.911 23.428C137.647 24.148 137.515 24.76 137.515 25.264C137.515 26.176 137.767 26.632 138.271 26.632ZM157.533 29.224C157.077 29.224 156.765 29.092 156.597 28.828C156.501 28.684 156.453 28.528 156.453 28.36C156.453 28.168 156.537 27.94 156.705 27.676C156.873 27.412 157.173 27.172 157.605 26.956C157.653 26.932 157.833 26.824 158.145 26.632C158.481 26.44 158.685 26.332 158.757 26.308C158.613 25.78 158.361 25.252 158.001 24.724C157.641 24.172 157.317 23.548 157.029 22.852C156.741 22.156 156.621 21.292 156.669 20.26C156.717 19.276 156.981 18.424 157.461 17.704C157.941 16.984 158.553 16.396 159.297 15.94C160.065 15.484 160.857 15.172 161.673 15.004C161.865 14.956 162.069 14.92 162.285 14.896C162.501 14.872 162.717 14.86 162.933 14.86C163.533 14.86 164.061 14.932 164.517 15.076C164.997 15.22 165.405 15.46 165.741 15.796C166.101 16.132 166.281 16.504 166.281 16.912C166.281 17.176 166.197 17.44 166.029 17.704C165.981 17.8 165.909 17.896 165.813 17.992C165.717 18.088 165.597 18.136 165.453 18.136C165.357 18.136 165.309 18.064 165.309 17.92C165.309 17.8 165.333 17.644 165.381 17.452C165.453 17.26 165.501 17.14 165.525 17.092C165.549 17.044 165.561 16.96 165.561 16.84C165.561 16.576 165.489 16.36 165.345 16.192C165.177 15.976 164.913 15.844 164.553 15.796C164.217 15.748 163.905 15.724 163.617 15.724C162.777 15.724 161.949 15.952 161.133 16.408C160.317 16.864 159.597 17.452 158.973 18.172C158.373 18.868 157.953 19.612 157.713 20.404C157.641 20.62 157.593 20.836 157.569 21.052C157.545 21.244 157.533 21.436 157.533 21.628C157.533 22.468 157.725 23.272 158.109 24.04C158.493 24.808 158.829 25.516 159.117 26.164C159.789 25.804 160.389 25.552 160.917 25.408C160.989 25.384 161.049 25.372 161.097 25.372C161.169 25.372 161.217 25.372 161.241 25.372C161.361 25.372 161.421 25.408 161.421 25.48C161.421 25.6 161.265 25.72 160.953 25.84C160.881 25.864 160.701 25.936 160.413 26.056C160.125 26.176 159.777 26.344 159.369 26.56C159.489 26.872 159.549 27.172 159.549 27.46C159.549 27.748 159.477 28.024 159.333 28.288C159.189 28.552 158.937 28.768 158.577 28.936C158.217 29.128 157.869 29.224 157.533 29.224ZM157.641 28.252C157.665 28.42 157.773 28.456 157.965 28.36C158.181 28.264 158.397 28.096 158.613 27.856C158.829 27.616 158.937 27.376 158.937 27.136C158.937 27.088 158.937 27.04 158.937 26.992C158.961 26.92 158.961 26.848 158.937 26.776C158.577 26.992 158.265 27.232 158.001 27.496C157.737 27.736 157.617 27.988 157.641 28.252ZM179.427 33.76C179.187 33.76 178.935 33.604 178.671 33.292C178.431 33.004 178.203 32.596 177.987 32.068C177.627 31.204 177.375 30.292 177.231 29.332C177.087 28.396 177.015 27.448 177.015 26.488C177.015 25.432 177.087 24.4 177.231 23.392C177.375 22.384 177.531 21.472 177.699 20.656C177.819 20.08 177.963 19.468 178.131 18.82C178.299 18.172 178.455 17.656 178.599 17.272C178.455 17.296 178.227 17.38 177.915 17.524C177.603 17.668 177.279 17.812 176.943 17.956C176.631 18.1 176.355 18.172 176.115 18.172C175.755 18.172 175.575 17.968 175.575 17.56C175.575 17.344 175.647 17.152 175.791 16.984C175.959 16.816 176.163 16.684 176.403 16.588C176.883 16.372 177.411 16.216 177.987 16.12C178.563 16 178.947 15.88 179.139 15.76L180.075 13.384C180.171 13.144 180.339 12.76 180.579 12.232C180.843 11.68 181.143 11.092 181.479 10.468C181.839 9.844 182.187 9.28 182.523 8.776C182.787 8.392 183.039 8.092 183.279 7.876C183.519 7.636 183.783 7.516 184.071 7.516C184.503 7.516 184.719 7.684 184.719 8.02C184.719 8.212 184.635 8.5 184.467 8.884C184.323 9.268 184.047 9.772 183.639 10.396C183.183 11.116 182.715 11.836 182.235 12.556C181.779 13.252 181.383 13.984 181.047 14.752C181.023 14.848 180.963 15.004 180.867 15.22C180.795 15.412 180.735 15.532 180.687 15.58L181.407 15.472C181.599 15.448 181.815 15.436 182.055 15.436C182.295 15.412 182.559 15.4 182.847 15.4C183.255 15.4 183.639 15.424 183.999 15.472C184.383 15.496 184.695 15.556 184.935 15.652C185.055 15.7 185.163 15.76 185.259 15.832C185.379 15.88 185.439 15.928 185.439 15.976C185.439 16.072 185.127 16.12 184.503 16.12C184.143 16.12 183.627 16.18 182.955 16.3C182.307 16.42 181.563 16.612 180.723 16.876C180.315 16.996 180.039 17.164 179.895 17.38C179.751 17.596 179.559 18.112 179.319 18.928C178.959 20.224 178.671 21.472 178.455 22.672C178.239 23.848 178.071 25.048 177.951 26.272C177.927 26.512 177.903 26.764 177.879 27.028C177.879 27.292 177.879 27.58 177.879 27.892C177.879 28.708 177.951 29.56 178.095 30.448C178.263 31.336 178.503 32.104 178.815 32.752C178.887 32.896 178.959 33.028 179.031 33.148C179.127 33.268 179.235 33.352 179.355 33.4C179.523 33.472 179.607 33.556 179.607 33.652C179.607 33.724 179.547 33.76 179.427 33.76ZM193.933 29.224C193.477 29.224 193.165 29.092 192.997 28.828C192.901 28.684 192.853 28.528 192.853 28.36C192.853 28.168 192.937 27.94 193.105 27.676C193.273 27.412 193.573 27.172 194.005 26.956C194.053 26.932 194.233 26.824 194.545 26.632C194.881 26.44 195.085 26.332 195.157 26.308C195.013 25.78 194.761 25.252 194.401 24.724C194.041 24.172 193.717 23.548 193.429 22.852C193.141 22.156 193.021 21.292 193.069 20.26C193.117 19.276 193.381 18.424 193.861 17.704C194.341 16.984 194.953 16.396 195.697 15.94C196.465 15.484 197.257 15.172 198.073 15.004C198.265 14.956 198.469 14.92 198.685 14.896C198.901 14.872 199.117 14.86 199.333 14.86C199.933 14.86 200.461 14.932 200.917 15.076C201.397 15.22 201.805 15.46 202.141 15.796C202.501 16.132 202.681 16.504 202.681 16.912C202.681 17.176 202.597 17.44 202.429 17.704C202.381 17.8 202.309 17.896 202.213 17.992C202.117 18.088 201.997 18.136 201.853 18.136C201.757 18.136 201.709 18.064 201.709 17.92C201.709 17.8 201.733 17.644 201.781 17.452C201.853 17.26 201.901 17.14 201.925 17.092C201.949 17.044 201.961 16.96 201.961 16.84C201.961 16.576 201.889 16.36 201.745 16.192C201.577 15.976 201.313 15.844 200.953 15.796C200.617 15.748 200.305 15.724 200.017 15.724C199.177 15.724 198.349 15.952 197.533 16.408C196.717 16.864 195.997 17.452 195.373 18.172C194.773 18.868 194.353 19.612 194.113 20.404C194.041 20.62 193.993 20.836 193.969 21.052C193.945 21.244 193.933 21.436 193.933 21.628C193.933 22.468 194.125 23.272 194.509 24.04C194.893 24.808 195.229 25.516 195.517 26.164C196.189 25.804 196.789 25.552 197.317 25.408C197.389 25.384 197.449 25.372 197.497 25.372C197.569 25.372 197.617 25.372 197.641 25.372C197.761 25.372 197.821 25.408 197.821 25.48C197.821 25.6 197.665 25.72 197.353 25.84C197.281 25.864 197.101 25.936 196.813 26.056C196.525 26.176 196.177 26.344 195.769 26.56C195.889 26.872 195.949 27.172 195.949 27.46C195.949 27.748 195.877 28.024 195.733 28.288C195.589 28.552 195.337 28.768 194.977 28.936C194.617 29.128 194.269 29.224 193.933 29.224ZM194.041 28.252C194.065 28.42 194.173 28.456 194.365 28.36C194.581 28.264 194.797 28.096 195.013 27.856C195.229 27.616 195.337 27.376 195.337 27.136C195.337 27.088 195.337 27.04 195.337 26.992C195.361 26.92 195.361 26.848 195.337 26.776C194.977 26.992 194.665 27.232 194.401 27.496C194.137 27.736 194.017 27.988 194.041 28.252Z" fill="black"/>
</g>
<defs>
<filter id="filter0_d_298_104" x="0.320618" y="0.783997" width="206.361" height="48.716" filterUnits="userSpaceOnUse" color-interpolation-filters="sRGB">
<feFlood flood-opacity="0" result="BackgroundImageFix"/>
<feColorMatrix in="SourceAlpha" type="matrix" values="0 0 0 0 0 0 0 0 0 0 0 0 0 0 0 0 0 0 127 0" result="hardAlpha"/>
<feOffset dy="4"/>
<feGaussianBlur stdDeviation="2"/>
<feComposite in2="hardAlpha" operator="out"/>
<feColorMatrix type="matrix" values="0 0 0 0 0 0 0 0 0 0 0 0 0 0 0 0 0 0 0.25 0"/>
<feBlend mode="normal" in2="BackgroundImageFix" result="effect1_dropShadow_298_104"/>
<feBlend mode="normal" in="SourceGraphic" in2="effect1_dropShadow_298_104" result="shape"/>
</filter>
</defs>
</svg>
