<svg width="136" height="41" viewBox="0 0 136 41" fill="none" xmlns="http://www.w3.org/2000/svg">
<g filter="url(#filter0_d_298_104)">
<path d="M17.5755 31.392C16.1355 31.392 14.8515 30.648 13.7235 29.16C12.1875 29.616 10.7835 29.844 9.51153 29.844C8.11953 29.844 7.02753 29.58 6.23553 29.052C5.44353 28.548 5.04753 27.912 5.04753 27.144C5.04753 26.544 5.29953 25.896 5.80353 25.2C6.30753 24.504 7.08753 23.82 8.14353 23.148C8.57553 22.884 9.04353 22.62 9.54753 22.356C10.0755 22.092 10.6395 21.852 11.2395 21.636C11.1675 20.868 11.1315 20.052 11.1315 19.188C11.1315 17.22 11.3475 15.06 11.7795 12.708C12.2115 10.332 12.9315 7.776 13.9395 5.04C12.1635 5.928 10.5315 6.984 9.04353 8.208C7.55553 9.408 6.40353 10.644 5.58753 11.916C5.32353 12.348 4.99953 12.564 4.61553 12.564C4.35153 12.564 4.21953 12.432 4.21953 12.168C4.21953 11.976 4.32753 11.688 4.54353 11.304C4.73553 10.92 5.08353 10.44 5.58753 9.864C6.54753 8.76 7.79553 7.692 9.33153 6.66C10.8675 5.628 12.5475 4.74 14.3715 3.996C14.7795 2.868 15.2475 1.764 15.7755 0.684C15.9195 0.372 16.1355 0.215999 16.4235 0.215999C16.6155 0.215999 16.7715 0.287999 16.8915 0.431999C17.0355 0.551999 17.1075 0.707999 17.1075 0.899999C17.1075 0.995999 17.0835 1.116 17.0355 1.26C16.8915 1.596 16.7475 1.932 16.6035 2.268C16.4835 2.604 16.3635 2.94 16.2435 3.276C16.5795 3.156 16.9275 3.048 17.2875 2.952C17.6475 2.856 17.9955 2.76 18.3315 2.664C20.2035 2.232 21.8715 2.016 23.3355 2.016C25.2555 2.016 26.8395 2.34 28.0875 2.988C29.3355 3.636 30.2595 4.524 30.8595 5.652C31.4595 6.756 31.7595 8.016 31.7595 9.432C31.7595 10.896 31.4475 12.444 30.8235 14.076C30.2235 15.708 29.3355 17.352 28.1595 19.008C26.9835 20.64 25.5195 22.188 23.7675 23.652C22.0395 25.116 20.0595 26.412 17.8275 27.54C16.6515 28.116 15.5355 28.584 14.4795 28.944C15.0555 29.544 15.6435 29.964 16.2435 30.204C16.8435 30.444 17.3355 30.564 17.7195 30.564C18.0555 30.564 18.2955 30.492 18.4395 30.348C18.6555 30.108 18.8835 29.988 19.1235 29.988C19.2915 29.988 19.4355 30.036 19.5555 30.132C19.6755 30.228 19.7355 30.336 19.7355 30.456C19.7355 30.648 19.5795 30.828 19.2675 30.996C18.9795 31.14 18.6915 31.236 18.4035 31.284C18.1155 31.356 17.8395 31.392 17.5755 31.392ZM14.1195 28.512C14.6715 28.32 15.2475 28.08 15.8475 27.792C16.4715 27.528 17.1075 27.204 17.7555 26.82C20.4675 25.26 22.7115 23.508 24.4875 21.564C26.2875 19.596 27.6315 17.604 28.5195 15.588C29.4315 13.572 29.8875 11.7 29.8875 9.972C29.8875 7.908 29.2635 6.216 28.0155 4.896C26.7675 3.552 24.8955 2.88 22.3995 2.88C21.1995 2.88 19.8435 3.06 18.3315 3.42C17.9235 3.516 17.5155 3.636 17.1075 3.78C16.6995 3.9 16.2915 4.044 15.8835 4.212C14.4195 8.052 13.4115 11.376 12.8595 14.184C12.3075 16.968 12.0435 19.344 12.0675 21.312C13.2435 20.904 14.5035 20.58 15.8475 20.34C17.2155 20.1 18.6315 19.98 20.0955 19.98C20.3595 19.98 20.6235 19.992 20.8875 20.016C21.1755 20.016 21.4635 20.028 21.7515 20.052C22.0635 20.076 22.2195 20.148 22.2195 20.268C22.2195 20.46 21.8595 20.556 21.1395 20.556C20.8275 20.556 20.5035 20.544 20.1675 20.52C19.8555 20.496 19.5435 20.484 19.2315 20.484C17.8875 20.484 16.6035 20.616 15.3795 20.88C14.1555 21.144 13.0515 21.48 12.0675 21.888C12.1395 23.496 12.3675 24.84 12.7515 25.92C13.1355 26.976 13.5915 27.84 14.1195 28.512ZM10.5195 29.16C11.3595 29.16 12.3195 29.016 13.3995 28.728C12.8955 27.96 12.4515 27.036 12.0675 25.956C11.7075 24.852 11.4435 23.604 11.2755 22.212C10.1235 22.788 9.18753 23.4 8.46753 24.048C7.91553 24.528 7.50753 25.008 7.24353 25.488C6.97953 25.968 6.84753 26.412 6.84753 26.82C6.84753 27.492 7.17153 28.044 7.81953 28.476C8.46753 28.932 9.36753 29.16 10.5195 29.16ZM47.6451 28.8C46.8771 28.8 46.2891 28.44 45.8811 27.72C45.4731 27.024 45.2691 26.256 45.2691 25.416C45.2691 24.624 45.4011 23.796 45.6651 22.932C45.9291 22.068 46.2531 21.216 46.6371 20.376C47.0451 19.536 47.4651 18.768 47.8971 18.072C47.4651 18.24 47.0571 18.324 46.6731 18.324C46.4811 18.324 46.3131 18.3 46.1691 18.252C46.0251 18.204 45.9051 18.168 45.8091 18.144C45.6891 18.432 45.4731 18.912 45.1611 19.584C44.8731 20.256 44.5611 20.964 44.2251 21.708C43.9131 22.428 43.6371 23.04 43.3971 23.544C43.0131 24.36 42.6771 24.768 42.3891 24.768C42.2451 24.768 42.1731 24.672 42.1731 24.48C42.1731 24.336 42.2331 24.144 42.3531 23.904C42.9051 22.872 43.4211 21.852 43.9011 20.844C44.4051 19.836 44.8611 18.864 45.2691 17.928C45.2211 17.808 45.1731 17.652 45.1251 17.46C45.0771 17.244 45.0531 17.016 45.0531 16.776C45.0531 16.512 45.0771 16.236 45.1251 15.948C45.1971 15.636 45.2931 15.336 45.4131 15.048C45.4851 14.88 45.6171 14.64 45.8091 14.328C46.0011 13.992 46.2171 13.692 46.4571 13.428C46.6971 13.14 46.9251 12.996 47.1411 12.996C47.5491 12.996 47.7531 13.212 47.7531 13.644C47.7531 14.052 47.6211 14.52 47.3571 15.048C47.1171 15.576 46.8651 16.068 46.6011 16.524C46.3371 16.956 46.2051 17.28 46.2051 17.496C46.2051 17.688 46.3011 17.784 46.4931 17.784C46.7571 17.784 47.0811 17.652 47.4651 17.388C47.8731 17.1 48.1971 16.836 48.4371 16.596C48.5571 16.476 48.7491 16.296 49.0131 16.056C49.2771 15.792 49.5291 15.66 49.7691 15.66C50.0091 15.66 50.1651 15.732 50.2371 15.876C50.3331 16.02 50.3811 16.188 50.3811 16.38C50.3811 16.596 50.2851 16.872 50.0931 17.208C49.9011 17.52 49.6731 17.832 49.4091 18.144C49.1691 18.456 48.9651 18.72 48.7971 18.936C48.4611 19.44 48.0771 20.076 47.6451 20.844C47.2131 21.612 46.8411 22.44 46.5291 23.328C46.2171 24.192 46.0611 25.02 46.0611 25.812C46.0611 26.34 46.1931 26.892 46.4571 27.468C46.7211 28.044 47.0811 28.332 47.5371 28.332C47.9451 28.332 48.3771 28.116 48.8331 27.684C49.3131 27.252 49.7571 26.736 50.1651 26.136C50.5971 25.536 50.9691 24.96 51.2811 24.408C51.6171 23.856 51.8451 23.472 51.9651 23.256C52.0131 23.136 52.0971 22.992 52.2171 22.824C52.3371 22.632 52.4811 22.536 52.6491 22.536C52.7931 22.536 52.8651 22.608 52.8651 22.752C52.8651 22.872 52.8291 23.016 52.7571 23.184C52.7091 23.328 52.6611 23.46 52.6131 23.58C52.3971 24.084 52.1331 24.612 51.8211 25.164C51.5091 25.716 51.2931 26.088 51.1731 26.28C50.8371 26.832 50.3331 27.384 49.6611 27.936C49.0131 28.512 48.3411 28.8 47.6451 28.8ZM66.6832 14.976C66.4672 14.976 66.3112 14.868 66.2152 14.652C66.1432 14.412 66.1072 14.244 66.1072 14.148C66.1072 13.764 66.2152 13.404 66.4312 13.068C66.6712 12.708 66.9352 12.516 67.2232 12.492H67.3312C67.6192 12.492 67.8112 12.564 67.9072 12.708C68.0272 12.828 68.0872 12.984 68.0872 13.176C68.0872 13.536 67.9312 13.932 67.6192 14.364C67.3072 14.772 66.9952 14.976 66.6832 14.976ZM64.8472 27.864C64.0312 27.864 63.4792 27.552 63.1912 26.928C62.9032 26.304 62.7592 25.584 62.7592 24.768C62.7592 23.952 62.8432 23.1 63.0112 22.212C63.2032 21.3 63.4072 20.472 63.6232 19.728C63.8632 18.984 64.0432 18.456 64.1632 18.144C64.4272 17.592 64.6912 17.124 64.9552 16.74C65.2192 16.332 65.5072 16.128 65.8192 16.128C66.0352 16.128 66.1912 16.212 66.2872 16.38C66.4072 16.524 66.4672 16.716 66.4672 16.956C66.4672 17.436 66.3352 17.928 66.0712 18.432C65.8072 18.912 65.5672 19.368 65.3512 19.8C64.8712 20.784 64.4872 21.66 64.1992 22.428C63.9352 23.196 63.8032 24.156 63.8032 25.308C63.8032 26.052 63.8752 26.592 64.0192 26.928C64.1872 27.264 64.4152 27.432 64.7032 27.432C65.0872 27.432 65.5312 27.216 66.0352 26.784C66.5392 26.328 67.0552 25.728 67.5832 24.984C68.1112 24.24 68.5792 23.436 68.9872 22.572C69.2512 22.02 69.4552 21.744 69.5992 21.744C69.6952 21.744 69.7432 21.84 69.7432 22.032C69.7432 22.296 69.6352 22.68 69.4192 23.184C69.2272 23.664 68.9872 24.156 68.6992 24.66C68.4352 25.164 68.1832 25.56 67.9432 25.848C67.5352 26.376 67.0672 26.844 66.5392 27.252C66.0112 27.66 65.4472 27.864 64.8472 27.864ZM86.0174 27.504C85.6814 27.504 85.4294 27.372 85.2614 27.108C85.1174 26.844 85.0454 26.484 85.0454 26.028C85.0454 25.428 85.1534 24.708 85.3694 23.868C85.5854 23.004 85.8494 22.104 86.1614 21.168C86.4734 20.232 86.7974 19.332 87.1334 18.468C87.4694 17.604 87.7694 16.836 88.0334 16.164C88.2974 15.492 88.4774 15.012 88.5734 14.724C88.6214 14.604 88.6694 14.448 88.7174 14.256C88.7894 14.04 88.8254 13.848 88.8254 13.68C88.8254 13.488 88.7774 13.332 88.6814 13.212C88.6094 13.092 88.4414 13.032 88.1774 13.032C87.7934 13.032 87.3734 13.2 86.9174 13.536C86.4854 13.848 86.0534 14.232 85.6214 14.688C85.1894 15.12 84.8054 15.552 84.4694 15.984C84.1574 16.416 83.9414 16.74 83.8214 16.956C83.0774 18.18 82.5254 19.452 82.1654 20.772C81.8054 22.068 81.5534 23.436 81.4094 24.876C81.3854 25.116 81.2654 25.38 81.0494 25.668C80.8334 25.956 80.6174 26.1 80.4014 26.1C80.2094 26.1 80.0654 25.98 79.9694 25.74C79.8974 25.572 79.8494 25.38 79.8254 25.164C79.8014 24.948 79.7894 24.72 79.7894 24.48C79.7894 24.264 79.7894 24.06 79.7894 23.868C79.8134 23.652 79.8254 23.46 79.8254 23.292C79.8494 22.548 79.8854 21.804 79.9334 21.06C79.9814 20.316 80.0054 19.572 80.0054 18.828C80.0054 18.564 79.9934 18.3 79.9694 18.036C79.9694 17.748 79.9574 17.472 79.9334 17.208C79.9094 16.872 79.8614 16.524 79.7894 16.164C79.7174 15.78 79.5374 15.468 79.2494 15.228C79.2254 15.204 79.2134 15.192 79.2134 15.192C79.2134 15.168 79.2134 15.156 79.2134 15.156C79.2134 15.06 79.2974 15.012 79.4654 15.012C79.6334 15.012 79.7534 15.048 79.8254 15.12C80.1614 15.288 80.4254 15.6 80.6174 16.056C80.8334 16.512 80.9894 17.028 81.0854 17.604C81.2054 18.18 81.2894 18.744 81.3374 19.296C81.3854 19.824 81.4214 20.268 81.4454 20.628C81.6134 20.22 81.7694 19.848 81.9134 19.512C82.0574 19.152 82.2134 18.804 82.3814 18.468C82.6214 17.988 82.9334 17.412 83.3174 16.74C83.7254 16.044 84.1934 15.372 84.7214 14.724C85.2494 14.076 85.8254 13.536 86.4494 13.104C87.0734 12.672 87.7334 12.456 88.4294 12.456C89.1734 12.456 89.6894 12.624 89.9774 12.96C90.2894 13.272 90.4454 13.668 90.4454 14.148C90.4454 14.676 90.3134 15.264 90.0494 15.912C89.8094 16.536 89.5094 17.16 89.1494 17.784C88.7894 18.408 88.4414 18.972 88.1054 19.476C87.7934 19.956 87.5654 20.328 87.4214 20.592C87.3494 20.712 87.2174 20.988 87.0254 21.42C86.8334 21.828 86.6294 22.308 86.4134 22.86C86.1974 23.388 86.0054 23.928 85.8374 24.48C85.6934 25.032 85.6214 25.5 85.6214 25.884C85.6214 26.268 85.7174 26.52 85.9094 26.64C86.1494 26.784 86.4014 26.76 86.6654 26.568C86.9534 26.376 87.1934 26.184 87.3854 25.992C87.5774 25.8 87.6494 25.776 87.6014 25.92C87.5774 26.232 87.3974 26.58 87.0614 26.964C86.7494 27.324 86.4014 27.504 86.0174 27.504ZM100.39 32.22C100.15 32.22 99.9582 32.148 99.8142 32.004C99.6462 31.86 99.6222 31.692 99.7422 31.5C100.078 30.996 100.402 30.276 100.714 29.34C101.002 28.428 101.254 27.468 101.47 26.46C101.71 25.452 101.902 24.54 102.046 23.724C102.214 22.884 102.334 22.296 102.406 21.96C101.974 21.552 101.758 21.096 101.758 20.592C101.758 20.208 101.842 19.884 102.01 19.62C102.202 19.356 102.346 19.236 102.442 19.26C102.49 19.26 102.55 19.284 102.622 19.332C102.718 19.356 102.766 19.392 102.766 19.44C102.91 18.312 103.03 17.196 103.126 16.092C103.222 14.964 103.27 13.932 103.27 12.996C103.27 12.228 103.234 11.544 103.162 10.944C103.09 10.344 102.982 9.864 102.838 9.504C102.694 9.144 102.622 8.868 102.622 8.676C102.622 8.412 102.694 8.28 102.838 8.28C103.006 8.28 103.138 8.388 103.234 8.604C103.498 9.132 103.69 9.96 103.81 11.088C103.954 12.216 104.026 13.5 104.026 14.94C104.026 15.924 104.002 16.968 103.954 18.072C103.906 19.152 103.822 20.232 103.702 21.312C104.134 20.928 104.578 20.556 105.034 20.196C105.49 19.812 105.886 19.416 106.222 19.008V18.972C106.222 18.924 106.198 18.876 106.15 18.828C106.126 18.78 106.114 18.708 106.114 18.612C106.114 18.444 106.234 18.24 106.474 18C106.714 17.76 107.026 17.424 107.41 16.992C107.818 16.536 108.238 16.128 108.67 15.768C109.102 15.384 109.498 15.204 109.858 15.228C110.146 15.228 110.29 15.324 110.29 15.516C110.29 15.732 110.086 16.056 109.678 16.488C109.27 16.92 108.778 17.376 108.202 17.856C107.65 18.336 107.134 18.78 106.654 19.188C106.198 19.572 105.898 19.836 105.754 19.98L104.386 21.492L103.666 22.248C103.978 23.04 104.338 23.82 104.746 24.588C105.154 25.356 105.61 25.992 106.114 26.496C106.642 27 107.182 27.252 107.734 27.252C108.31 27.252 108.898 26.904 109.498 26.208C109.906 25.704 110.254 25.14 110.542 24.516C110.83 23.892 111.07 23.424 111.262 23.112C111.382 22.872 111.502 22.716 111.622 22.644C111.742 22.548 111.838 22.5 111.91 22.5C112.078 22.5 112.138 22.62 112.09 22.86C111.994 23.172 111.826 23.568 111.586 24.048C111.346 24.528 111.106 24.984 110.866 25.416C110.65 25.824 110.482 26.112 110.362 26.28C109.906 26.952 109.45 27.444 108.994 27.756C108.538 28.068 108.094 28.224 107.662 28.224C107.11 28.224 106.57 28.02 106.042 27.612C105.514 27.204 105.022 26.676 104.566 26.028C104.134 25.38 103.738 24.696 103.378 23.976C103.114 25.8 102.79 27.432 102.406 28.872C102.022 30.336 101.602 31.344 101.146 31.896C100.93 32.112 100.678 32.22 100.39 32.22ZM122.955 28.224C122.499 28.224 122.187 28.092 122.019 27.828C121.923 27.684 121.875 27.528 121.875 27.36C121.875 27.168 121.959 26.94 122.127 26.676C122.295 26.412 122.595 26.172 123.027 25.956C123.075 25.932 123.255 25.824 123.567 25.632C123.903 25.44 124.107 25.332 124.179 25.308C124.035 24.78 123.783 24.252 123.423 23.724C123.063 23.172 122.739 22.548 122.451 21.852C122.163 21.156 122.043 20.292 122.091 19.26C122.139 18.276 122.403 17.424 122.883 16.704C123.363 15.984 123.975 15.396 124.719 14.94C125.487 14.484 126.279 14.172 127.095 14.004C127.287 13.956 127.491 13.92 127.707 13.896C127.923 13.872 128.139 13.86 128.355 13.86C128.955 13.86 129.483 13.932 129.939 14.076C130.419 14.22 130.827 14.46 131.163 14.796C131.523 15.132 131.703 15.504 131.703 15.912C131.703 16.176 131.619 16.44 131.451 16.704C131.403 16.8 131.331 16.896 131.235 16.992C131.139 17.088 131.019 17.136 130.875 17.136C130.779 17.136 130.731 17.064 130.731 16.92C130.731 16.8 130.755 16.644 130.803 16.452C130.875 16.26 130.923 16.14 130.947 16.092C130.971 16.044 130.983 15.96 130.983 15.84C130.983 15.576 130.911 15.36 130.767 15.192C130.599 14.976 130.335 14.844 129.975 14.796C129.639 14.748 129.327 14.724 129.039 14.724C128.199 14.724 127.371 14.952 126.555 15.408C125.739 15.864 125.019 16.452 124.395 17.172C123.795 17.868 123.375 18.612 123.135 19.404C123.063 19.62 123.015 19.836 122.991 20.052C122.967 20.244 122.955 20.436 122.955 20.628C122.955 21.468 123.147 22.272 123.531 23.04C123.915 23.808 124.251 24.516 124.539 25.164C125.211 24.804 125.811 24.552 126.339 24.408C126.411 24.384 126.471 24.372 126.519 24.372C126.591 24.372 126.639 24.372 126.663 24.372C126.783 24.372 126.843 24.408 126.843 24.48C126.843 24.6 126.687 24.72 126.375 24.84C126.303 24.864 126.123 24.936 125.835 25.056C125.547 25.176 125.199 25.344 124.791 25.56C124.911 25.872 124.971 26.172 124.971 26.46C124.971 26.748 124.899 27.024 124.755 27.288C124.611 27.552 124.359 27.768 123.999 27.936C123.639 28.128 123.291 28.224 122.955 28.224ZM123.063 27.252C123.087 27.42 123.195 27.456 123.387 27.36C123.603 27.264 123.819 27.096 124.035 26.856C124.251 26.616 124.359 26.376 124.359 26.136C124.359 26.088 124.359 26.04 124.359 25.992C124.383 25.92 124.383 25.848 124.359 25.776C123.999 25.992 123.687 26.232 123.423 26.496C123.159 26.736 123.039 26.988 123.063 27.252Z" fill="black"/>
</g>
<defs>
<filter id="filter0_d_298_104" x="0.219543" y="0.216003" width="135.483" height="40.004" filterUnits="userSpaceOnUse" color-interpolation-filters="sRGB">
<feFlood flood-opacity="0" result="BackgroundImageFix"/>
<feColorMatrix in="SourceAlpha" type="matrix" values="0 0 0 0 0 0 0 0 0 0 0 0 0 0 0 0 0 0 127 0" result="hardAlpha"/>
<feOffset dy="4"/>
<feGaussianBlur stdDeviation="2"/>
<feComposite in2="hardAlpha" operator="out"/>
<feColorMatrix type="matrix" values="0 0 0 0 0 0 0 0 0 0 0 0 0 0 0 0 0 0 0.25 0"/>
<feBlend mode="normal" in2="BackgroundImageFix" result="effect1_dropShadow_298_104"/>
<feBlend mode="normal" in="SourceGraphic" in2="effect1_dropShadow_298_104" result="shape"/>
</filter>
</defs>
</svg>
