<svg width="148" height="41" viewBox="0 0 148 41" fill="none" xmlns="http://www.w3.org/2000/svg">
<g filter="url(#filter0_d_298_104)">
<path d="M5.49355 30.212C5.22955 30.212 5.01355 30.128 4.84555 29.96C4.65355 29.816 4.55755 29.612 4.55755 29.348C4.55755 29.012 4.72555 28.616 5.06155 28.16C5.37355 27.704 5.90155 27.2 6.64555 26.648C6.76555 26.336 6.84955 26.048 6.89755 25.784C6.96955 25.52 7.02955 25.232 7.07755 24.92C7.24555 23.864 7.54555 22.796 7.97755 21.716C8.40955 20.612 8.84155 19.58 9.27355 18.62C8.81755 18.524 8.36155 18.164 7.90555 17.54C7.47355 16.916 7.25755 16.256 7.25755 15.56C7.25755 15.392 7.29355 15.116 7.36555 14.732C7.43755 14.324 7.55755 14.12 7.72555 14.12C7.94155 14.12 8.04955 14.3 8.04955 14.66C8.04955 15.02 8.04955 15.272 8.04955 15.416C8.04955 15.92 8.19355 16.424 8.48155 16.928C8.76955 17.432 9.11755 17.792 9.52555 18.008C9.93355 17.12 10.4495 16.076 11.0735 14.876C11.6975 13.652 12.4055 12.368 13.1975 11.024C13.9895 9.656 14.8535 8.324 15.7895 7.028C16.7255 5.732 17.7095 4.556 18.7415 3.5C19.7975 2.444 20.8895 1.604 22.0175 0.979998C23.1455 0.355999 24.2975 0.0439994 25.4735 0.0439994C26.4335 0.0439994 27.1295 0.295999 27.5615 0.799998C27.9935 1.28 28.2095 1.94 28.2095 2.78C28.2095 3.668 27.9935 4.688 27.5615 5.84C27.1295 6.992 26.5175 8.192 25.7255 9.44C24.9575 10.664 24.0575 11.864 23.0255 13.04C21.9935 14.192 20.8655 15.248 19.6415 16.208C18.4175 17.144 17.1455 17.888 15.8255 18.44C14.5055 18.992 13.1855 19.268 11.8655 19.268C11.6015 19.268 11.3375 19.256 11.0735 19.232C10.8095 19.184 10.5575 19.112 10.3175 19.016C9.83755 20.144 9.39355 21.272 8.98555 22.4C8.57755 23.528 8.25355 24.704 8.01355 25.928C9.86155 24.8 11.8655 23.984 14.0255 23.48C16.1855 22.976 18.3455 22.724 20.5055 22.724C21.0815 22.724 21.7415 22.832 22.4855 23.048C23.2295 23.24 23.8655 23.552 24.3935 23.984C24.9455 24.416 25.2215 25.004 25.2215 25.748C25.2215 26.348 25.1615 26.648 25.0415 26.648C24.9215 26.648 24.7775 26.432 24.6095 26C24.2735 25.136 23.7455 24.596 23.0255 24.38C22.3055 24.14 21.5135 24.02 20.6495 24.02C19.1855 24.02 17.9255 24.092 16.8695 24.236C15.8375 24.356 14.8775 24.548 13.9895 24.812C13.1255 25.076 12.2255 25.4 11.2895 25.784C10.3535 26.168 9.24955 26.612 7.97755 27.116C7.78555 28.22 7.42555 29.012 6.89755 29.492C6.39355 29.972 5.92555 30.212 5.49355 30.212ZM11.6855 18.62C12.9575 18.62 14.2175 18.344 15.4655 17.792C16.7375 17.216 17.9495 16.46 19.1015 15.524C20.2775 14.564 21.3575 13.508 22.3415 12.356C23.3255 11.204 24.1775 10.04 24.8975 8.864C25.6415 7.664 26.2175 6.536 26.6255 5.48C27.0335 4.4 27.2375 3.488 27.2375 2.744C27.2375 2.192 27.1055 1.76 26.8415 1.448C26.6015 1.136 26.2175 0.979998 25.6895 0.979998C24.8015 0.979998 23.8655 1.292 22.8815 1.916C21.9215 2.54 20.9375 3.38 19.9295 4.436C18.9215 5.492 17.9375 6.656 16.9775 7.928C16.0415 9.2 15.1535 10.496 14.3135 11.816C13.4975 13.112 12.7655 14.348 12.1175 15.524C11.4695 16.676 10.9655 17.648 10.6055 18.44C10.7255 18.512 10.9055 18.56 11.1455 18.584C11.3855 18.608 11.5655 18.62 11.6855 18.62ZM37.7327 25.712C37.4207 25.712 37.1567 25.556 36.9407 25.244C36.7487 24.932 36.6647 24.428 36.6887 23.732C36.6887 23.396 36.7847 22.844 36.9767 22.076C37.1687 21.284 37.3727 20.408 37.5887 19.448C37.8287 18.488 38.0327 17.552 38.2007 16.64C38.3927 15.728 38.4887 14.984 38.4887 14.408C38.4887 14.144 38.4647 13.928 38.4167 13.76C38.3687 13.568 38.2487 13.472 38.0567 13.472C37.9127 13.472 37.7807 13.544 37.6607 13.688C37.5407 13.808 37.4207 13.928 37.3007 14.048C37.1327 14.264 37.0367 14.372 37.0127 14.372C36.9887 14.372 36.9767 14.336 36.9767 14.264C36.9767 13.976 37.0847 13.664 37.3007 13.328C37.5407 12.968 37.8167 12.788 38.1287 12.788C38.5127 12.788 38.7887 12.98 38.9567 13.364C39.1247 13.724 39.2087 14.24 39.2087 14.912C39.2087 15.656 39.1247 16.496 38.9567 17.432C38.7887 18.368 38.6087 19.244 38.4167 20.06C38.3207 20.444 38.2367 20.912 38.1647 21.464C38.0927 22.016 38.0567 22.556 38.0567 23.084C38.0567 23.54 38.0927 23.924 38.1647 24.236C38.2607 24.524 38.4287 24.668 38.6687 24.668C38.8607 24.668 39.0887 24.56 39.3527 24.344C39.6407 24.104 39.9767 23.708 40.3607 23.156C40.9127 22.388 41.4047 21.512 41.8367 20.528C42.2927 19.52 42.7127 18.608 43.0967 17.792C43.2407 17.456 43.4207 17.288 43.6367 17.288C44.1887 17.288 44.4647 17.588 44.4647 18.188C44.4647 18.644 44.3927 19.22 44.2487 19.916C44.1287 20.588 44.0687 21.236 44.0687 21.86C44.0687 22.988 44.2847 23.552 44.7167 23.552C44.9327 23.552 45.1487 23.42 45.3647 23.156C45.6047 22.868 45.7367 22.7 45.7607 22.652C45.9047 22.484 46.0367 22.4 46.1567 22.4C46.3007 22.4 46.3727 22.484 46.3727 22.652C46.3727 22.964 46.1927 23.3 45.8327 23.66C45.4727 24.02 45.0887 24.2 44.6807 24.2C44.2967 24.2 43.9847 24.068 43.7447 23.804C43.5287 23.516 43.3247 23.144 43.1327 22.688C42.9167 22.136 42.8087 21.656 42.8087 21.248C42.8087 20.84 42.7847 20.444 42.7367 20.06C42.5687 20.636 42.2807 21.248 41.8727 21.896C41.4887 22.544 41.0447 23.168 40.5407 23.768C40.0607 24.344 39.5687 24.812 39.0647 25.172C38.5607 25.532 38.1167 25.712 37.7327 25.712ZM63.3194 26.504C62.9834 26.504 62.7314 26.372 62.5634 26.108C62.4194 25.844 62.3474 25.484 62.3474 25.028C62.3474 24.428 62.4554 23.708 62.6714 22.868C62.8874 22.004 63.1514 21.104 63.4634 20.168C63.7754 19.232 64.0994 18.332 64.4354 17.468C64.7714 16.604 65.0714 15.836 65.3354 15.164C65.5994 14.492 65.7794 14.012 65.8754 13.724C65.9234 13.604 65.9714 13.448 66.0194 13.256C66.0914 13.04 66.1274 12.848 66.1274 12.68C66.1274 12.488 66.0794 12.332 65.9834 12.212C65.9114 12.092 65.7434 12.032 65.4794 12.032C65.0954 12.032 64.6754 12.2 64.2194 12.536C63.7874 12.848 63.3554 13.232 62.9234 13.688C62.4914 14.12 62.1074 14.552 61.7714 14.984C61.4594 15.416 61.2434 15.74 61.1234 15.956C60.3794 17.18 59.8274 18.452 59.4674 19.772C59.1074 21.068 58.8554 22.436 58.7114 23.876C58.6874 24.116 58.5674 24.38 58.3514 24.668C58.1354 24.956 57.9194 25.1 57.7034 25.1C57.5114 25.1 57.3674 24.98 57.2714 24.74C57.1994 24.572 57.1514 24.38 57.1274 24.164C57.1034 23.948 57.0914 23.72 57.0914 23.48C57.0914 23.264 57.0914 23.06 57.0914 22.868C57.1154 22.652 57.1274 22.46 57.1274 22.292C57.1514 21.548 57.1874 20.804 57.2354 20.06C57.2834 19.316 57.3074 18.572 57.3074 17.828C57.3074 17.564 57.2954 17.3 57.2714 17.036C57.2714 16.748 57.2594 16.472 57.2354 16.208C57.2114 15.872 57.1634 15.524 57.0914 15.164C57.0194 14.78 56.8394 14.468 56.5514 14.228C56.5274 14.204 56.5154 14.192 56.5154 14.192C56.5154 14.168 56.5154 14.156 56.5154 14.156C56.5154 14.06 56.5994 14.012 56.7674 14.012C56.9354 14.012 57.0554 14.048 57.1274 14.12C57.4634 14.288 57.7274 14.6 57.9194 15.056C58.1354 15.512 58.2914 16.028 58.3874 16.604C58.5074 17.18 58.5914 17.744 58.6394 18.296C58.6874 18.824 58.7234 19.268 58.7474 19.628C58.9154 19.22 59.0714 18.848 59.2154 18.512C59.3594 18.152 59.5154 17.804 59.6834 17.468C59.9234 16.988 60.2354 16.412 60.6194 15.74C61.0274 15.044 61.4954 14.372 62.0234 13.724C62.5514 13.076 63.1274 12.536 63.7514 12.104C64.3754 11.672 65.0354 11.456 65.7314 11.456C66.4754 11.456 66.9914 11.624 67.2794 11.96C67.5914 12.272 67.7474 12.668 67.7474 13.148C67.7474 13.676 67.6154 14.264 67.3514 14.912C67.1114 15.536 66.8114 16.16 66.4514 16.784C66.0914 17.408 65.7434 17.972 65.4074 18.476C65.0954 18.956 64.8674 19.328 64.7234 19.592C64.6514 19.712 64.5194 19.988 64.3274 20.42C64.1354 20.828 63.9314 21.308 63.7154 21.86C63.4994 22.388 63.3074 22.928 63.1394 23.48C62.9954 24.032 62.9234 24.5 62.9234 24.884C62.9234 25.268 63.0194 25.52 63.2114 25.64C63.4514 25.784 63.7034 25.76 63.9674 25.568C64.2554 25.376 64.4954 25.184 64.6874 24.992C64.8794 24.8 64.9514 24.776 64.9034 24.92C64.8794 25.232 64.6994 25.58 64.3634 25.964C64.0514 26.324 63.7034 26.504 63.3194 26.504ZM81.1121 26.72C80.5121 26.72 79.9841 26.504 79.5281 26.072C79.0961 25.664 78.8801 24.956 78.8801 23.948C78.8801 23.42 78.9881 22.772 79.2041 22.004C79.4201 21.212 79.7081 20.384 80.0681 19.52C80.4521 18.656 80.8841 17.852 81.3641 17.108C81.8441 16.364 82.3481 15.752 82.8761 15.272C83.4041 14.792 83.9201 14.552 84.4241 14.552C84.8321 14.552 85.1201 14.696 85.2881 14.984C85.4801 15.272 85.5761 15.584 85.5761 15.92C85.5761 16.208 85.5161 16.472 85.3961 16.712C85.3001 16.928 85.1561 17.036 84.9641 17.036C84.7721 17.036 84.6281 16.952 84.5321 16.784C84.4601 16.592 84.3881 16.412 84.3161 16.244C84.2681 16.052 84.1361 15.956 83.9201 15.956C83.4881 15.956 83.0561 16.244 82.6241 16.82C82.1921 17.372 81.7961 18.08 81.4361 18.944C81.0761 19.808 80.7881 20.696 80.5721 21.608C80.3561 22.52 80.2481 23.324 80.2481 24.02C80.2481 24.62 80.3201 25.064 80.4641 25.352C80.6321 25.616 80.9321 25.748 81.3641 25.748C81.9161 25.748 82.4441 25.592 82.9481 25.28C83.4761 24.944 83.9561 24.536 84.3881 24.056C84.8201 23.576 85.1801 23.12 85.4681 22.688C85.7801 22.256 85.9961 21.932 86.1161 21.716C86.4041 21.164 86.6321 20.888 86.8001 20.888C86.8721 20.888 86.9081 20.984 86.9081 21.176C86.9081 21.416 86.8601 21.656 86.7641 21.896C86.6681 22.112 86.5721 22.316 86.4761 22.508C86.1401 23.228 85.6841 23.912 85.1081 24.56C84.5321 25.184 83.8961 25.7 83.2001 26.108C82.5281 26.516 81.8321 26.72 81.1121 26.72ZM100.646 32.696C100.334 32.696 100.07 32.624 99.8543 32.48C99.2783 32.072 98.9903 31.388 98.9903 30.428C98.9903 29.708 99.1223 28.88 99.3863 27.944C99.6743 27.032 100.022 26.096 100.43 25.136C100.838 24.152 101.258 23.204 101.69 22.292C102.146 21.38 102.542 20.564 102.878 19.844C103.238 19.124 103.478 18.572 103.598 18.188C103.742 17.756 103.814 17.432 103.814 17.216C103.814 16.976 103.73 16.856 103.562 16.856C103.37 16.856 103.082 17.012 102.698 17.324C102.338 17.612 101.978 17.936 101.618 18.296C101.282 18.656 101.042 18.92 100.898 19.088C100.13 19.952 99.4343 20.912 98.8103 21.968C98.2103 23.024 97.8383 23.924 97.6943 24.668C97.6703 24.788 97.6223 25.004 97.5503 25.316C97.5023 25.628 97.3943 25.772 97.2263 25.748C96.9863 25.7 96.8183 25.556 96.7223 25.316C96.6503 25.052 96.6023 24.812 96.5783 24.596C96.5783 24.476 96.5663 24.356 96.5423 24.236C96.5423 24.092 96.5423 23.948 96.5423 23.804C96.5423 22.82 96.6383 21.704 96.8303 20.456C97.0223 19.208 97.2743 17.936 97.5863 16.64C97.5383 16.664 97.4303 16.688 97.2623 16.712C97.0943 16.736 96.9383 16.748 96.7943 16.748C96.4103 16.748 96.2183 16.64 96.2183 16.424C96.2183 16.328 96.3023 16.268 96.4703 16.244C96.5903 16.22 96.8183 16.172 97.1543 16.1C97.4903 16.004 97.7063 15.932 97.8023 15.884C97.9943 15.044 98.2103 14.228 98.4503 13.436C98.7143 12.644 98.9663 11.876 99.2063 11.132C99.9023 9.236 100.646 7.556 101.438 6.092C102.254 4.604 103.43 3.416 104.966 2.528C105.734 2.096 106.466 1.88 107.162 1.88C107.906 1.88 108.518 2.12 108.998 2.6C109.502 3.08 109.754 3.776 109.754 4.688C109.754 5.84 109.466 6.872 108.89 7.784C108.314 8.672 107.678 9.536 106.982 10.376C106.406 11.072 105.734 11.732 104.966 12.356C104.222 12.956 103.466 13.508 102.698 14.012C102.026 14.444 101.354 14.852 100.682 15.236C100.034 15.596 99.3623 15.92 98.6663 16.208C98.3543 17.264 98.0783 18.356 97.8383 19.484C97.6223 20.612 97.4663 21.752 97.3703 22.904C97.3703 22.928 97.3583 23.048 97.3343 23.264C97.3103 23.456 97.2863 23.66 97.2623 23.876C97.2623 24.068 97.2623 24.176 97.2623 24.2H97.2983C97.3463 23.912 97.4303 23.636 97.5503 23.372C97.6943 23.108 97.8383 22.856 97.9823 22.616C98.4623 21.632 99.0863 20.624 99.8543 19.592C100.622 18.56 101.402 17.708 102.194 17.036C102.41 16.844 102.722 16.652 103.13 16.46C103.562 16.244 103.97 16.136 104.354 16.136C104.618 16.136 104.846 16.208 105.038 16.352C105.23 16.496 105.326 16.772 105.326 17.18C105.326 17.252 105.326 17.324 105.326 17.396C105.326 17.468 105.314 17.552 105.29 17.648C105.194 18.344 104.822 19.196 104.174 20.204C103.526 21.188 102.866 22.244 102.194 23.372C101.642 24.308 101.138 25.292 100.682 26.324C100.25 27.38 100.034 28.472 100.034 29.6C100.034 29.96 100.07 30.344 100.142 30.752C100.238 31.28 100.37 31.64 100.538 31.832C100.73 32.024 100.922 32.12 101.114 32.12C101.306 32.12 101.486 32.06 101.654 31.94C101.846 31.82 102.002 31.712 102.122 31.616C102.17 31.568 102.242 31.496 102.338 31.4C102.434 31.328 102.518 31.292 102.59 31.292C102.686 31.292 102.698 31.388 102.626 31.58C102.602 31.676 102.518 31.772 102.374 31.868C102.254 31.988 102.17 32.072 102.122 32.12C101.666 32.504 101.174 32.696 100.646 32.696ZM98.9183 15.416C100.334 14.792 101.678 14.024 102.95 13.112C104.246 12.2 105.41 11.156 106.442 9.98C106.994 9.356 107.522 8.66 108.026 7.892C108.554 7.124 108.878 6.332 108.998 5.516C109.022 5.324 109.01 5.012 108.962 4.58C108.914 4.148 108.77 3.752 108.53 3.392C108.314 3.008 107.93 2.816 107.378 2.816C107.138 2.816 106.862 2.864 106.55 2.96C106.238 3.056 105.878 3.236 105.47 3.5C104.942 3.812 104.462 4.208 104.03 4.688C103.622 5.168 103.238 5.696 102.878 6.272C102.374 7.112 101.942 7.904 101.582 8.648C101.222 9.392 100.85 10.232 100.466 11.168C100.202 11.792 99.9383 12.464 99.6743 13.184C99.4103 13.904 99.1583 14.648 98.9183 15.416ZM119.164 26.468C118.3 26.468 117.544 25.964 116.896 24.956C116.272 23.924 115.96 22.304 115.96 20.096C115.96 18.656 116.14 17.504 116.5 16.64C116.86 15.752 117.304 15.104 117.832 14.696C118.36 14.288 118.864 14.084 119.344 14.084C119.824 14.084 120.232 14.252 120.568 14.588C120.904 14.9 121.072 15.356 121.072 15.956C121.072 16.532 120.904 17.144 120.568 17.792C120.232 18.416 119.824 18.992 119.344 19.52C118.888 20.024 118.432 20.36 117.976 20.528C117.88 20.576 117.76 20.6 117.616 20.6C117.52 20.6 117.472 20.564 117.472 20.492C117.472 20.3 117.664 20.084 118.048 19.844C118.528 19.508 118.984 19.004 119.416 18.332C119.848 17.636 120.064 17.024 120.064 16.496C120.064 16.184 119.992 15.944 119.848 15.776C119.704 15.584 119.536 15.488 119.344 15.488C118.984 15.488 118.588 15.776 118.156 16.352C117.748 16.904 117.448 17.864 117.256 19.232C117.208 19.616 117.16 19.988 117.112 20.348C117.088 20.684 117.076 21.02 117.076 21.356C117.076 22.7 117.28 23.756 117.688 24.524C118.096 25.268 118.636 25.64 119.308 25.64C119.884 25.64 120.532 25.304 121.252 24.632C121.972 23.936 122.68 22.856 123.376 21.392C123.544 21.008 123.736 20.816 123.952 20.816C124.096 20.816 124.168 20.912 124.168 21.104C124.168 21.272 124.12 21.452 124.024 21.644C123.4 23.18 122.644 24.368 121.756 25.208C120.868 26.048 120.004 26.468 119.164 26.468ZM134.689 27.224C134.233 27.224 133.921 27.092 133.753 26.828C133.657 26.684 133.609 26.528 133.609 26.36C133.609 26.168 133.693 25.94 133.861 25.676C134.029 25.412 134.329 25.172 134.761 24.956C134.809 24.932 134.989 24.824 135.301 24.632C135.637 24.44 135.841 24.332 135.913 24.308C135.769 23.78 135.517 23.252 135.157 22.724C134.797 22.172 134.473 21.548 134.185 20.852C133.897 20.156 133.777 19.292 133.825 18.26C133.873 17.276 134.137 16.424 134.617 15.704C135.097 14.984 135.709 14.396 136.453 13.94C137.221 13.484 138.013 13.172 138.829 13.004C139.021 12.956 139.225 12.92 139.441 12.896C139.657 12.872 139.873 12.86 140.089 12.86C140.689 12.86 141.217 12.932 141.673 13.076C142.153 13.22 142.561 13.46 142.897 13.796C143.257 14.132 143.437 14.504 143.437 14.912C143.437 15.176 143.353 15.44 143.185 15.704C143.137 15.8 143.065 15.896 142.969 15.992C142.873 16.088 142.753 16.136 142.609 16.136C142.513 16.136 142.465 16.064 142.465 15.92C142.465 15.8 142.489 15.644 142.537 15.452C142.609 15.26 142.657 15.14 142.681 15.092C142.705 15.044 142.717 14.96 142.717 14.84C142.717 14.576 142.645 14.36 142.501 14.192C142.333 13.976 142.069 13.844 141.709 13.796C141.373 13.748 141.061 13.724 140.773 13.724C139.933 13.724 139.105 13.952 138.289 14.408C137.473 14.864 136.753 15.452 136.129 16.172C135.529 16.868 135.109 17.612 134.869 18.404C134.797 18.62 134.749 18.836 134.725 19.052C134.701 19.244 134.689 19.436 134.689 19.628C134.689 20.468 134.881 21.272 135.265 22.04C135.649 22.808 135.985 23.516 136.273 24.164C136.945 23.804 137.545 23.552 138.073 23.408C138.145 23.384 138.205 23.372 138.253 23.372C138.325 23.372 138.373 23.372 138.397 23.372C138.517 23.372 138.577 23.408 138.577 23.48C138.577 23.6 138.421 23.72 138.109 23.84C138.037 23.864 137.857 23.936 137.569 24.056C137.281 24.176 136.933 24.344 136.525 24.56C136.645 24.872 136.705 25.172 136.705 25.46C136.705 25.748 136.633 26.024 136.489 26.288C136.345 26.552 136.093 26.768 135.733 26.936C135.373 27.128 135.025 27.224 134.689 27.224ZM134.797 26.252C134.821 26.42 134.929 26.456 135.121 26.36C135.337 26.264 135.553 26.096 135.769 25.856C135.985 25.616 136.093 25.376 136.093 25.136C136.093 25.088 136.093 25.04 136.093 24.992C136.117 24.92 136.117 24.848 136.093 24.776C135.733 24.992 135.421 25.232 135.157 25.496C134.893 25.736 134.773 25.988 134.797 26.252Z" fill="black"/>
</g>
<defs>
<filter id="filter0_d_298_104" x="0.557556" y="0.0440063" width="146.879" height="40.652" filterUnits="userSpaceOnUse" color-interpolation-filters="sRGB">
<feFlood flood-opacity="0" result="BackgroundImageFix"/>
<feColorMatrix in="SourceAlpha" type="matrix" values="0 0 0 0 0 0 0 0 0 0 0 0 0 0 0 0 0 0 127 0" result="hardAlpha"/>
<feOffset dy="4"/>
<feGaussianBlur stdDeviation="2"/>
<feComposite in2="hardAlpha" operator="out"/>
<feColorMatrix type="matrix" values="0 0 0 0 0 0 0 0 0 0 0 0 0 0 0 0 0 0 0.25 0"/>
<feBlend mode="normal" in2="BackgroundImageFix" result="effect1_dropShadow_298_104"/>
<feBlend mode="normal" in="SourceGraphic" in2="effect1_dropShadow_298_104" result="shape"/>
</filter>
</defs>
</svg>
