<svg width="123" height="48" viewBox="0 0 123 48" fill="none" xmlns="http://www.w3.org/2000/svg">
<g filter="url(#filter0_d_105_766)">
<path d="M1 19.5C1 8.73045 9.73045 0 20.5 0H96.5C107.27 0 116 8.73045 116 19.5C116 30.2696 107.27 39 96.5 39H20.5C9.73045 39 1 30.2696 1 19.5Z" fill="#C1D200"/>
<path d="M22.8836 10.6875H24.3836L30.1961 17.3672L35.9852 10.6875H37.4852V27H35.1414V14.5781L34.45 15.5156L30.1961 20.4727L25.9422 15.5273L25.2273 14.5898V27H22.8836V10.6875ZM48.7398 24.8438C48.482 24.3984 48.275 23.875 48.1188 23.2734C47.9703 22.6719 47.8961 21.8867 47.8961 20.918C47.8961 19.9492 48.1031 19.0586 48.5172 18.2461C48.9391 17.4258 49.4859 16.7539 50.1578 16.2305C51.4625 15.2227 53.0836 14.7188 55.0211 14.7188C56.0289 14.7188 56.7906 14.7422 57.3063 14.7891C57.3063 14.7891 57.6852 14.8281 58.443 14.9062V27H56.3336L56.2398 25.6055C55.7711 26.2305 55.0563 26.6953 54.0953 27C53.7281 27.1172 53.3492 27.1758 52.9586 27.1758C52.5758 27.1758 52.1969 27.1367 51.8219 27.0586C51.4469 26.9805 51.0719 26.8516 50.6969 26.6719C50.3297 26.4922 49.9781 26.2539 49.6422 25.957C49.3063 25.6523 49.0055 25.2812 48.7398 24.8438ZM56.0992 16.6289C55.5992 16.5664 55.0992 16.5352 54.5992 16.5352C54.107 16.5352 53.5797 16.625 53.0172 16.8047C52.4547 16.9766 51.9742 17.25 51.5758 17.625C50.7477 18.4062 50.3336 19.5977 50.3336 21.1992C50.3336 22.7148 50.6891 23.8359 51.4 24.5625C51.9391 25.1016 52.5875 25.3711 53.3453 25.3711C54.3219 25.3711 55.1266 25.0156 55.7594 24.3047C55.9156 24.125 56.0289 23.9648 56.0992 23.8242V16.6289ZM72.1234 11.3906C72.1234 11.8359 71.975 12.1797 71.6781 12.4219C71.3891 12.6562 71.0258 12.7734 70.5883 12.7734C70.1508 12.7734 69.7875 12.6562 69.4984 12.4219C69.2172 12.1797 69.0766 11.8359 69.0766 11.3906C69.0766 10.9375 69.2172 10.5938 69.4984 10.3594C69.7875 10.125 70.1508 10.0078 70.5883 10.0078C71.0258 10.0078 71.3891 10.125 71.6781 10.3594C71.975 10.5938 72.1234 10.9375 72.1234 11.3906ZM69.3813 14.9062H71.725V27H69.3813V14.9062ZM88.0656 16.7344C86.9016 16.7344 85.8664 17.1289 84.9602 17.918V27H82.6164V14.9062H84.7844L84.9484 16.2188C86.2219 15.2188 87.5383 14.7188 88.8977 14.7188C90.3352 14.7188 91.3898 15.1484 92.0617 16.0078C92.7648 16.9141 93.1164 18.375 93.1164 20.3906V27H90.7727V20.3906C90.7727 18.4531 90.2492 17.2969 89.2023 16.9219C88.8664 16.7969 88.4875 16.7344 88.0656 16.7344Z" fill="black"/>
</g>
<defs>
<filter id="filter0_d_105_766" x="0" y="0" width="123" height="48" filterUnits="userSpaceOnUse" color-interpolation-filters="sRGB">
<feFlood flood-opacity="0" result="BackgroundImageFix"/>
<feColorMatrix in="SourceAlpha" type="matrix" values="0 0 0 0 0 0 0 0 0 0 0 0 0 0 0 0 0 0 127 0" result="hardAlpha"/>
<feOffset dx="3" dy="5"/>
<feGaussianBlur stdDeviation="2"/>
<feComposite in2="hardAlpha" operator="out"/>
<feColorMatrix type="matrix" values="0 0 0 0 0 0 0 0 0 0 0 0 0 0 0 0 0 0 0.25 0"/>
<feBlend mode="normal" in2="BackgroundImageFix" result="effect1_dropShadow_105_766"/>
<feBlend mode="normal" in="SourceGraphic" in2="effect1_dropShadow_105_766" result="shape"/>
</filter>
</defs>
</svg>
