<svg width="123" height="48" viewBox="0 0 123 48" fill="none" xmlns="http://www.w3.org/2000/svg">
<g filter="url(#filter0_d_4_9)">
<path d="M1 19.5C1 8.73045 9.73045 0 20.5 0H96.5C107.27 0 116 8.73045 116 19.5V19.5C116 30.2696 107.27 39 96.5 39H20.5C9.73045 39 1 30.2696 1 19.5V19.5Z" fill="#C1D200"/>
<path d="M19.8719 10.6875H21.3719L27.1844 17.3672L32.9734 10.6875H34.4734V27H32.1297V14.5781L31.4383 15.5156L27.1844 20.4727L22.9305 15.5273L22.2156 14.5898V27H19.8719V10.6875ZM50.8375 27.1875C46.4156 27.1875 44.2047 25.0273 44.2047 20.707C44.2047 18.8477 44.818 17.3594 46.0445 16.2422C47.1461 15.2266 48.4039 14.7188 49.818 14.7188C51.357 14.7188 52.5602 15.2344 53.4273 16.2656C54.232 17.2266 54.6344 18.5117 54.6344 20.1211V21.0352H46.6422C46.6422 23.2461 47.5445 24.5977 49.3492 25.0898C49.7789 25.207 50.4391 25.2656 51.3297 25.2656C52.2281 25.2656 53.107 25.1445 53.9664 24.9023V26.8828C53.107 27.0859 52.0641 27.1875 50.8375 27.1875ZM52.2906 19.3125C52.2906 18.5625 52.0836 17.9297 51.6695 17.4141C51.1852 16.8203 50.5172 16.5234 49.6656 16.5234C48.7672 16.5234 48.0367 16.8086 47.4742 17.3789C46.9586 17.9102 46.7008 18.5547 46.7008 19.3125H52.2906ZM69.8617 16.7344C68.6977 16.7344 67.6625 17.1289 66.7563 17.918V27H64.4125V14.9062H66.5805L66.7445 16.2188C68.018 15.2188 69.3344 14.7188 70.6938 14.7188C72.1313 14.7188 73.1859 15.1484 73.8578 16.0078C74.5609 16.9141 74.9125 18.375 74.9125 20.3906V27H72.5688V20.3906C72.5688 18.4531 72.0453 17.2969 70.9984 16.9219C70.6625 16.7969 70.2836 16.7344 69.8617 16.7344ZM93.5148 24.0352V14.9062H95.8586V27H93.7492L93.5383 25.7227C92.382 26.6992 91.1047 27.1875 89.7063 27.1875C88.2219 27.1875 87.1711 26.7773 86.5539 25.957C85.9133 25.1211 85.593 23.6797 85.593 21.6328V14.9062H87.9367V21.5156C87.9367 22.9609 88.1438 23.9453 88.5578 24.4688C88.925 24.9375 89.6242 25.1719 90.6555 25.1719C91.6945 25.1719 92.6477 24.793 93.5148 24.0352Z" fill="black"/>
</g>
<defs>
<filter id="filter0_d_4_9" x="0" y="0" width="123" height="48" filterUnits="userSpaceOnUse" color-interpolation-filters="sRGB">
<feFlood flood-opacity="0" result="BackgroundImageFix"/>
<feColorMatrix in="SourceAlpha" type="matrix" values="0 0 0 0 0 0 0 0 0 0 0 0 0 0 0 0 0 0 127 0" result="hardAlpha"/>
<feOffset dx="3" dy="5"/>
<feGaussianBlur stdDeviation="2"/>
<feComposite in2="hardAlpha" operator="out"/>
<feColorMatrix type="matrix" values="0 0 0 0 0 0 0 0 0 0 0 0 0 0 0 0 0 0 0.25 0"/>
<feBlend mode="normal" in2="BackgroundImageFix" result="effect1_dropShadow_4_9"/>
<feBlend mode="normal" in="SourceGraphic" in2="effect1_dropShadow_4_9" result="shape"/>
</filter>
</defs>
</svg>
