<svg width="123" height="48" viewBox="0 0 123 48" fill="none" xmlns="http://www.w3.org/2000/svg">
<g filter="url(#filter0_d_105_767)">
<path d="M1 19.5C1 8.73045 9.73045 0 20.5 0H96.5C107.27 0 116 8.73045 116 19.5C116 30.2696 107.27 39 96.5 39H20.5C9.73045 39 1 30.2696 1 19.5Z" fill="#C1D200"/>
<path d="M13.3617 18.8672C13.3617 17.5938 13.5531 16.4414 13.9359 15.4102C14.3187 14.3789 14.85 13.5 15.5297 12.7734C16.9594 11.2578 18.8148 10.5 21.0961 10.5C23.3852 10.5 25.2367 11.2578 26.6508 12.7734C28.0883 14.3125 28.807 16.3438 28.807 18.8672C28.807 21.3906 28.0883 23.4141 26.6508 24.9375C25.2445 26.4375 23.393 27.1875 21.0961 27.1875C18.807 27.1875 16.9516 26.4375 15.5297 24.9375C14.0844 23.4062 13.3617 21.3828 13.3617 18.8672ZM15.7055 18.8555C15.7055 20.6367 16.1391 22.1094 17.0062 23.2734C17.9828 24.5703 19.3461 25.2188 21.0961 25.2188C22.8461 25.2188 24.2055 24.5703 25.1742 23.2734C26.0336 22.125 26.4633 20.6602 26.4633 18.8789C26.4633 17.082 26.0336 15.6016 25.1742 14.4375C24.2055 13.125 22.8461 12.4688 21.0961 12.4688C19.3383 12.4688 17.975 13.125 17.0062 14.4375C16.1391 15.6016 15.7055 17.0742 15.7055 18.8555ZM46.7883 17.0508C46.3586 16.9258 45.843 16.8633 45.2414 16.8633C44.6477 16.8633 44.1594 16.9258 43.7766 17.0508C43.3937 17.168 43.0578 17.3125 42.7687 17.4844C42.2375 17.7969 41.8508 18.1484 41.6086 18.5391V27H39.2648V14.9062H41.5148L41.6086 16.582C42.1945 15.8477 43.05 15.2969 44.175 14.9297C44.5812 14.7891 45.0461 14.7188 45.5695 14.7188C46.093 14.7188 46.4992 14.7578 46.7883 14.8359V17.0508ZM58.1367 16.2305C58.8164 15.707 59.5781 15.3242 60.4219 15.082C61.2734 14.8398 62.0156 14.7188 62.6484 14.7188C63.2812 14.7188 63.7695 14.7344 64.1133 14.7656V9.5625H66.4453V27H64.3477L64.2539 25.6055C63.7773 26.2383 63.0547 26.707 62.0859 27.0117C61.7109 27.1289 61.3281 27.1875 60.9375 27.1875C60.5547 27.1875 60.1758 27.1484 59.8008 27.0703C59.4258 26.9922 59.0508 26.8633 58.6758 26.6836C58.3086 26.4961 57.957 26.2539 57.6211 25.957C57.2852 25.6523 56.9844 25.2812 56.7188 24.8438C56.1562 23.8828 55.875 22.7461 55.875 21.4336C55.875 20.1211 56.082 19.0586 56.4961 18.2461C56.918 17.4258 57.4648 16.7539 58.1367 16.2305ZM59.5547 17.625C59.1562 18 58.8477 18.4844 58.6289 19.0781C58.418 19.6641 58.3125 20.3789 58.3125 21.2227C58.3125 22.0586 58.4141 22.75 58.6172 23.2969C58.8203 23.8359 59.0742 24.2578 59.3789 24.5625C59.918 25.1094 60.5664 25.3828 61.3242 25.3828C62.3008 25.3828 63.1094 25.0234 63.75 24.3047C63.9141 24.125 64.0312 23.9648 64.1016 23.8242V16.6172L63.8672 16.5938C63.5078 16.5469 63.0781 16.5234 62.5781 16.5234C62.0859 16.5234 61.5586 16.6133 60.9961 16.793C60.4336 16.9648 59.9531 17.2422 59.5547 17.625ZM83.1492 27.1875C78.7273 27.1875 76.5164 25.0273 76.5164 20.707C76.5164 18.8477 77.1297 17.3594 78.3562 16.2422C79.4578 15.2266 80.7156 14.7188 82.1297 14.7188C83.6687 14.7188 84.8719 15.2344 85.7391 16.2656C86.5437 17.2266 86.9461 18.5117 86.9461 20.1211V21.0352H78.9539C78.9539 23.2461 79.8562 24.5977 81.6609 25.0898C82.0906 25.207 82.7508 25.2656 83.6414 25.2656C84.5398 25.2656 85.4187 25.1445 86.2781 24.9023V26.8828C85.4187 27.0859 84.3758 27.1875 83.1492 27.1875ZM84.6023 19.3125C84.6023 18.5625 84.3953 17.9297 83.9812 17.4141C83.4969 16.8203 82.8289 16.5234 81.9773 16.5234C81.0789 16.5234 80.3484 16.8086 79.7859 17.3789C79.2703 17.9102 79.0125 18.5547 79.0125 19.3125H84.6023ZM104.412 17.0508C103.982 16.9258 103.466 16.8633 102.865 16.8633C102.271 16.8633 101.783 16.9258 101.4 17.0508C101.017 17.168 100.681 17.3125 100.392 17.4844C99.8609 17.7969 99.4742 18.1484 99.232 18.5391V27H96.8883V14.9062H99.1383L99.232 16.582C99.818 15.8477 100.673 15.2969 101.798 14.9297C102.205 14.7891 102.67 14.7188 103.193 14.7188C103.716 14.7188 104.123 14.7578 104.412 14.8359V17.0508Z" fill="black"/>
</g>
<defs>
<filter id="filter0_d_105_767" x="0" y="0" width="123" height="48" filterUnits="userSpaceOnUse" color-interpolation-filters="sRGB">
<feFlood flood-opacity="0" result="BackgroundImageFix"/>
<feColorMatrix in="SourceAlpha" type="matrix" values="0 0 0 0 0 0 0 0 0 0 0 0 0 0 0 0 0 0 127 0" result="hardAlpha"/>
<feOffset dx="3" dy="5"/>
<feGaussianBlur stdDeviation="2"/>
<feComposite in2="hardAlpha" operator="out"/>
<feColorMatrix type="matrix" values="0 0 0 0 0 0 0 0 0 0 0 0 0 0 0 0 0 0 0.25 0"/>
<feBlend mode="normal" in2="BackgroundImageFix" result="effect1_dropShadow_105_767"/>
<feBlend mode="normal" in="SourceGraphic" in2="effect1_dropShadow_105_767" result="shape"/>
</filter>
</defs>
</svg>
