<svg width="113" height="37" viewBox="0 0 113 37" fill="none" xmlns="http://www.w3.org/2000/svg">
<g filter="url(#filter0_d_298_104)">
<path d="M5.0186 27.592C4.8986 27.592 4.8386 27.496 4.8386 27.304C4.8386 27.136 4.8986 26.932 5.0186 26.692C5.1386 26.452 5.2946 26.26 5.4866 26.116C5.6786 25.996 5.8826 25.864 6.0986 25.72C6.2906 25.6 6.4826 25.492 6.6746 25.396C6.6506 25.348 6.6386 25.264 6.6386 25.144C6.6386 24.952 6.6986 24.856 6.8186 24.856C6.8906 24.856 6.9986 24.94 7.1426 25.108C9.0146 24.076 10.8386 23.32 12.6146 22.84V22.732C12.6146 22.06 12.4346 21.436 12.0746 20.86C11.7386 20.284 11.3066 19.696 10.7786 19.096C10.2506 18.496 9.7106 17.836 9.1586 17.116C8.6306 16.396 8.1506 15.58 7.7186 14.668C7.3106 13.732 7.0466 12.64 6.9266 11.392C6.9026 11.248 6.8906 11.104 6.8906 10.96C6.8906 10.816 6.8906 10.672 6.8906 10.528C6.8906 8.992 7.2386 7.6 7.9346 6.352C8.6306 5.104 9.5306 4.036 10.6346 3.148C11.7626 2.236 12.9746 1.528 14.2706 1.024C15.3026 0.615999 16.4786 0.411999 17.7986 0.411999C18.2786 0.411999 18.7346 0.447999 19.1666 0.52C20.4386 0.76 21.3266 1.18 21.8306 1.78C22.3346 2.38 22.5866 2.98 22.5866 3.58C22.5866 4.036 22.4666 4.444 22.2266 4.804C21.9866 5.164 21.8186 5.344 21.7226 5.344C21.6506 5.344 21.6146 5.296 21.6146 5.2C21.6146 5.152 21.6266 5.08 21.6506 4.984C21.6986 4.864 21.7346 4.744 21.7586 4.624C21.8306 4.432 21.8786 4.264 21.9026 4.12C21.9266 3.976 21.9386 3.832 21.9386 3.688C21.9386 2.92 21.5786 2.356 20.8586 1.996C20.1626 1.612 19.4186 1.42 18.6266 1.42C18.5306 1.42 18.4226 1.42 18.3026 1.42C18.1826 1.42 18.0626 1.432 17.9426 1.456C16.4306 1.672 15.0026 2.224 13.6586 3.112C12.3146 4 11.1746 5.164 10.2386 6.604C9.3266 8.02 8.7266 9.652 8.4386 11.5C8.4146 11.668 8.3906 11.836 8.3666 12.004C8.3666 12.172 8.3666 12.328 8.3666 12.472C8.3666 13.6 8.6066 14.632 9.0866 15.568C9.5666 16.48 10.1306 17.332 10.7786 18.124C11.4506 18.916 12.0866 19.684 12.6866 20.428C13.2866 21.148 13.6946 21.868 13.9106 22.588C14.3906 22.492 14.8586 22.432 15.3146 22.408C15.7706 22.384 16.2146 22.384 16.6466 22.408C16.9826 22.456 17.1506 22.552 17.1506 22.696C17.1506 22.84 16.9106 22.912 16.4306 22.912C16.0946 22.912 15.7226 22.936 15.3146 22.984C14.9066 23.008 14.4746 23.08 14.0186 23.2C14.0426 23.272 14.0546 23.344 14.0546 23.416C14.0546 23.488 14.0546 23.548 14.0546 23.596C14.0546 23.836 14.0186 24.088 13.9466 24.352C13.6346 25.312 13.0706 26.02 12.2546 26.476C11.4386 26.932 10.6106 27.16 9.7706 27.16C8.9546 27.16 8.2706 26.992 7.7186 26.656C7.5266 26.56 7.3466 26.428 7.1786 26.26C6.8666 26.428 6.5546 26.62 6.2426 26.836C5.9066 27.052 5.5826 27.268 5.2706 27.484C5.1746 27.556 5.0906 27.592 5.0186 27.592ZM9.4466 26.512C10.1426 26.512 10.8266 26.284 11.4986 25.828C12.1706 25.396 12.5426 24.664 12.6146 23.632C11.0306 24.184 9.3986 24.952 7.7186 25.936C8.1026 26.32 8.6786 26.512 9.4466 26.512ZM33.5323 25.504C33.1963 25.504 32.9443 25.372 32.7763 25.108C32.6323 24.844 32.5603 24.484 32.5603 24.028C32.5603 23.428 32.6683 22.708 32.8843 21.868C33.1003 21.004 33.3643 20.104 33.6763 19.168C33.9883 18.232 34.3123 17.332 34.6483 16.468C34.9843 15.604 35.2843 14.836 35.5483 14.164C35.8123 13.492 35.9923 13.012 36.0883 12.724C36.1363 12.604 36.1843 12.448 36.2323 12.256C36.3043 12.04 36.3403 11.848 36.3403 11.68C36.3403 11.488 36.2923 11.332 36.1963 11.212C36.1243 11.092 35.9563 11.032 35.6923 11.032C35.3083 11.032 34.8883 11.2 34.4323 11.536C34.0003 11.848 33.5683 12.232 33.1363 12.688C32.7043 13.12 32.3203 13.552 31.9843 13.984C31.6723 14.416 31.4563 14.74 31.3363 14.956C30.5923 16.18 30.0403 17.452 29.6803 18.772C29.3203 20.068 29.0683 21.436 28.9243 22.876C28.9003 23.116 28.7803 23.38 28.5643 23.668C28.3483 23.956 28.1323 24.1 27.9163 24.1C27.7243 24.1 27.5803 23.98 27.4843 23.74C27.4123 23.572 27.3643 23.38 27.3403 23.164C27.3163 22.948 27.3043 22.72 27.3043 22.48C27.3043 22.264 27.3043 22.06 27.3043 21.868C27.3283 21.652 27.3403 21.46 27.3403 21.292C27.3643 20.548 27.4003 19.804 27.4483 19.06C27.4963 18.316 27.5203 17.572 27.5203 16.828C27.5203 16.564 27.5083 16.3 27.4843 16.036C27.4843 15.748 27.4723 15.472 27.4483 15.208C27.4243 14.872 27.3763 14.524 27.3043 14.164C27.2323 13.78 27.0523 13.468 26.7643 13.228C26.7403 13.204 26.7283 13.192 26.7283 13.192C26.7283 13.168 26.7283 13.156 26.7283 13.156C26.7283 13.06 26.8123 13.012 26.9803 13.012C27.1483 13.012 27.2683 13.048 27.3403 13.12C27.6763 13.288 27.9403 13.6 28.1323 14.056C28.3483 14.512 28.5043 15.028 28.6003 15.604C28.7203 16.18 28.8043 16.744 28.8523 17.296C28.9003 17.824 28.9363 18.268 28.9603 18.628C29.1283 18.22 29.2843 17.848 29.4283 17.512C29.5723 17.152 29.7283 16.804 29.8963 16.468C30.1363 15.988 30.4483 15.412 30.8323 14.74C31.2403 14.044 31.7083 13.372 32.2363 12.724C32.7643 12.076 33.3403 11.536 33.9643 11.104C34.5883 10.672 35.2483 10.456 35.9443 10.456C36.6883 10.456 37.2043 10.624 37.4923 10.96C37.8043 11.272 37.9603 11.668 37.9603 12.148C37.9603 12.676 37.8283 13.264 37.5643 13.912C37.3243 14.536 37.0243 15.16 36.6643 15.784C36.3043 16.408 35.9563 16.972 35.6203 17.476C35.3083 17.956 35.0803 18.328 34.9363 18.592C34.8643 18.712 34.7323 18.988 34.5403 19.42C34.3483 19.828 34.1443 20.308 33.9283 20.86C33.7123 21.388 33.5203 21.928 33.3523 22.48C33.2083 23.032 33.1363 23.5 33.1363 23.884C33.1363 24.268 33.2323 24.52 33.4243 24.64C33.6643 24.784 33.9163 24.76 34.1803 24.568C34.4683 24.376 34.7083 24.184 34.9003 23.992C35.0923 23.8 35.1643 23.776 35.1163 23.92C35.0923 24.232 34.9123 24.58 34.5763 24.964C34.2643 25.324 33.9163 25.504 33.5323 25.504ZM50.245 24.712C49.861 24.712 49.537 24.508 49.273 24.1C49.081 23.764 48.985 23.368 48.985 22.912C48.985 22.264 49.129 21.532 49.417 20.716C49.705 19.9 50.089 19.108 50.569 18.34C51.073 17.572 51.625 16.924 52.225 16.396C52.849 15.844 53.485 15.52 54.133 15.424C54.373 15.4 54.661 15.46 54.997 15.604C55.333 15.748 55.609 15.928 55.825 16.144C55.873 15.904 55.909 15.676 55.933 15.46C55.957 15.22 55.969 14.992 55.969 14.776C55.969 14.104 55.861 13.504 55.645 12.976C55.429 12.448 55.045 12.1 54.493 11.932C54.277 11.86 54.037 11.824 53.773 11.824C53.629 11.824 53.473 11.848 53.305 11.896C53.137 11.92 52.957 11.992 52.765 12.112C52.573 12.208 52.381 12.364 52.189 12.58C51.997 12.772 51.865 12.952 51.793 13.12C51.745 13.216 51.625 13.432 51.433 13.768C51.241 14.08 51.085 14.224 50.965 14.2C50.869 14.176 50.821 14.092 50.821 13.948C50.821 13.876 50.845 13.768 50.893 13.624C51.037 13.168 51.313 12.784 51.721 12.472C52.129 12.136 52.573 11.872 53.053 11.68C53.533 11.464 53.929 11.344 54.241 11.32C54.313 11.32 54.385 11.32 54.457 11.32C54.529 11.296 54.589 11.284 54.637 11.284C55.021 11.284 55.369 11.344 55.681 11.464C56.017 11.56 56.281 11.692 56.473 11.86C56.785 12.1 57.037 12.412 57.229 12.796C57.421 13.156 57.517 13.612 57.517 14.164C57.517 14.332 57.505 14.512 57.481 14.704C57.457 14.896 57.421 15.088 57.373 15.28C57.301 15.664 57.205 16.156 57.085 16.756C56.989 17.332 56.881 17.932 56.761 18.556C56.665 19.18 56.581 19.756 56.509 20.284C56.461 20.788 56.437 21.148 56.437 21.364C56.437 21.604 56.509 21.88 56.653 22.192C56.821 22.48 57.037 22.624 57.301 22.624C57.445 22.624 57.601 22.552 57.769 22.408C57.961 22.264 58.153 22.024 58.345 21.688C58.465 21.496 58.573 21.4 58.669 21.4C58.789 21.4 58.849 21.472 58.849 21.616C58.849 21.808 58.753 22.036 58.561 22.3C58.105 22.948 57.529 23.272 56.833 23.272C56.257 23.272 55.849 23.032 55.609 22.552C55.201 21.76 54.997 21.052 54.997 20.428C54.997 19.78 54.985 19.336 54.961 19.096C54.841 19.384 54.613 19.84 54.277 20.464C53.941 21.064 53.545 21.7 53.089 22.372C52.633 23.02 52.153 23.572 51.649 24.028C51.145 24.484 50.677 24.712 50.245 24.712ZM50.821 23.632C51.061 23.632 51.337 23.512 51.649 23.272C51.985 23.032 52.333 22.66 52.693 22.156C53.173 21.46 53.617 20.68 54.025 19.816C54.433 18.952 54.805 18.112 55.141 17.296C54.853 16.6 54.493 16.252 54.061 16.252C53.677 16.252 53.269 16.456 52.837 16.864C52.405 17.272 51.997 17.74 51.613 18.268C51.133 18.988 50.749 19.708 50.461 20.428C50.197 21.148 50.065 21.76 50.065 22.264C50.065 23.176 50.317 23.632 50.821 23.632ZM76.1667 28.744C75.9267 28.744 75.7227 28.672 75.5547 28.528C75.4107 28.384 75.3987 28.216 75.5187 28.024C75.8067 27.592 76.0707 27.004 76.3107 26.26C76.5747 25.54 76.8147 24.76 77.0307 23.92C77.2467 23.08 77.4387 22.276 77.6067 21.508C77.7747 20.716 77.9067 20.044 78.0027 19.492C77.6427 20.068 77.1987 20.716 76.6707 21.436C76.1667 22.156 75.6507 22.816 75.1227 23.416C74.5947 23.992 74.1627 24.412 73.8267 24.676C72.9387 25.372 72.0147 25.72 71.0547 25.72C70.4547 25.72 69.9267 25.504 69.4707 25.072C69.0387 24.664 68.8227 23.956 68.8227 22.948C68.8227 22.444 68.9187 21.82 69.1107 21.076C69.3267 20.308 69.6027 19.516 69.9387 18.7C70.2987 17.884 70.7067 17.104 71.1627 16.36C71.6187 15.616 72.0867 14.992 72.5667 14.488C73.0707 13.984 73.5627 13.684 74.0427 13.588C74.1147 13.564 74.2227 13.552 74.3667 13.552C74.7747 13.552 75.0627 13.696 75.2307 13.984C75.4227 14.272 75.5187 14.584 75.5187 14.92C75.5187 15.208 75.4587 15.472 75.3387 15.712C75.2427 15.928 75.0987 16.036 74.9067 16.036C74.7147 16.036 74.5707 15.952 74.4747 15.784C74.4027 15.592 74.3307 15.412 74.2587 15.244C74.2107 15.052 74.0787 14.956 73.8627 14.956C73.4307 14.956 72.9987 15.244 72.5667 15.82C72.1347 16.372 71.7387 17.08 71.3787 17.944C71.0187 18.808 70.7307 19.696 70.5147 20.608C70.2987 21.52 70.1907 22.324 70.1907 23.02C70.1907 23.476 70.2507 23.86 70.3707 24.172C70.4907 24.484 70.6827 24.664 70.9467 24.712C71.5227 24.808 72.1347 24.652 72.7827 24.244C73.4547 23.812 74.1027 23.248 74.7267 22.552C75.3747 21.856 75.9627 21.136 76.4907 20.392C77.0427 19.648 77.4867 18.988 77.8227 18.412L77.9307 18.232C77.6667 17.896 77.5347 17.524 77.5347 17.116C77.5347 16.732 77.6187 16.408 77.7867 16.144C77.9787 15.88 78.1227 15.76 78.2187 15.784C78.2667 15.784 78.3267 15.808 78.3987 15.856C78.4947 15.88 78.5427 15.916 78.5427 15.964C78.7587 14.38 78.8667 12.796 78.8667 11.212C78.8667 9.94 78.7947 8.752 78.6507 7.648C78.5307 6.544 78.3387 5.62 78.0747 4.876C78.0027 4.612 77.9667 4.42 77.9667 4.3C77.9667 4.108 78.0267 4.012 78.1467 4.012C78.2667 4.012 78.4107 4.108 78.5787 4.3C78.7467 4.492 78.8907 4.768 79.0107 5.128C79.2507 5.728 79.4307 6.652 79.5507 7.9C79.6947 9.148 79.7667 10.552 79.7667 12.112C79.7667 13 79.7427 13.936 79.6947 14.92C79.6467 15.88 79.5747 16.852 79.4787 17.836L79.5147 17.8C79.9227 17.392 80.3427 17.02 80.7747 16.684C81.2307 16.348 81.6387 15.964 81.9987 15.532V15.496C81.9987 15.448 81.9747 15.4 81.9267 15.352C81.9027 15.304 81.8907 15.232 81.8907 15.136C81.8907 14.968 82.0107 14.764 82.2507 14.524C82.4907 14.284 82.8027 13.948 83.1867 13.516C83.5947 13.06 84.0147 12.652 84.4467 12.292C84.8787 11.908 85.2747 11.728 85.6347 11.752C85.9227 11.752 86.0667 11.848 86.0667 12.04C86.0667 12.256 85.8627 12.58 85.4547 13.012C85.0467 13.444 84.5547 13.9 83.9787 14.38C83.4267 14.86 82.9107 15.304 82.4307 15.712C81.9747 16.096 81.6747 16.36 81.5307 16.504L80.1627 18.016L79.5867 18.628C79.7547 19.204 79.9707 19.864 80.2347 20.608C80.4987 21.352 80.7987 22.06 81.1347 22.732C81.4947 23.404 81.8907 23.968 82.3227 24.424C82.7547 24.856 83.2227 25.072 83.7267 25.072C84.3027 25.072 84.8667 24.76 85.4187 24.136C85.7067 23.8 86.0067 23.38 86.3187 22.876C86.6547 22.348 86.9547 21.844 87.2187 21.364C87.5067 20.884 87.7107 20.536 87.8307 20.32C87.9507 20.08 88.0707 19.924 88.1907 19.852C88.3107 19.756 88.4067 19.708 88.4787 19.708C88.6467 19.708 88.7067 19.828 88.6587 20.068C88.5627 20.38 88.3587 20.836 88.0467 21.436C87.7587 22.036 87.4587 22.6 87.1467 23.128C86.8587 23.656 86.6547 24.004 86.5347 24.172C86.1027 24.844 85.6467 25.324 85.1667 25.612C84.7107 25.9 84.2427 26.044 83.7627 26.044C83.1147 26.044 82.4787 25.792 81.8547 25.288C81.2547 24.808 80.7147 24.148 80.2347 23.308C79.7787 22.468 79.4187 21.532 79.1547 20.5C78.8907 22.324 78.5667 23.956 78.1827 25.396C77.7987 26.86 77.3787 27.868 76.9227 28.42C76.7067 28.636 76.4547 28.744 76.1667 28.744ZM99.5155 26.224C99.0595 26.224 98.7475 26.092 98.5795 25.828C98.4835 25.684 98.4355 25.528 98.4355 25.36C98.4355 25.168 98.5195 24.94 98.6875 24.676C98.8555 24.412 99.1555 24.172 99.5875 23.956C99.6355 23.932 99.8155 23.824 100.127 23.632C100.463 23.44 100.667 23.332 100.739 23.308C100.595 22.78 100.343 22.252 99.9835 21.724C99.6235 21.172 99.2995 20.548 99.0115 19.852C98.7235 19.156 98.6035 18.292 98.6515 17.26C98.6995 16.276 98.9635 15.424 99.4435 14.704C99.9235 13.984 100.535 13.396 101.279 12.94C102.047 12.484 102.839 12.172 103.655 12.004C103.847 11.956 104.051 11.92 104.267 11.896C104.483 11.872 104.699 11.86 104.915 11.86C105.515 11.86 106.043 11.932 106.499 12.076C106.979 12.22 107.387 12.46 107.723 12.796C108.083 13.132 108.263 13.504 108.263 13.912C108.263 14.176 108.179 14.44 108.011 14.704C107.963 14.8 107.891 14.896 107.795 14.992C107.699 15.088 107.579 15.136 107.435 15.136C107.339 15.136 107.291 15.064 107.291 14.92C107.291 14.8 107.315 14.644 107.363 14.452C107.435 14.26 107.483 14.14 107.507 14.092C107.531 14.044 107.543 13.96 107.543 13.84C107.543 13.576 107.471 13.36 107.327 13.192C107.159 12.976 106.895 12.844 106.535 12.796C106.199 12.748 105.887 12.724 105.599 12.724C104.759 12.724 103.931 12.952 103.115 13.408C102.299 13.864 101.579 14.452 100.955 15.172C100.355 15.868 99.9355 16.612 99.6955 17.404C99.6235 17.62 99.5755 17.836 99.5515 18.052C99.5275 18.244 99.5155 18.436 99.5155 18.628C99.5155 19.468 99.7075 20.272 100.091 21.04C100.475 21.808 100.811 22.516 101.099 23.164C101.771 22.804 102.371 22.552 102.899 22.408C102.971 22.384 103.031 22.372 103.079 22.372C103.151 22.372 103.199 22.372 103.223 22.372C103.343 22.372 103.403 22.408 103.403 22.48C103.403 22.6 103.247 22.72 102.935 22.84C102.863 22.864 102.683 22.936 102.395 23.056C102.107 23.176 101.759 23.344 101.351 23.56C101.471 23.872 101.531 24.172 101.531 24.46C101.531 24.748 101.459 25.024 101.315 25.288C101.171 25.552 100.919 25.768 100.559 25.936C100.199 26.128 99.8515 26.224 99.5155 26.224ZM99.6235 25.252C99.6475 25.42 99.7555 25.456 99.9475 25.36C100.163 25.264 100.379 25.096 100.595 24.856C100.811 24.616 100.919 24.376 100.919 24.136C100.919 24.088 100.919 24.04 100.919 23.992C100.943 23.92 100.943 23.848 100.919 23.776C100.559 23.992 100.247 24.232 99.9835 24.496C99.7195 24.736 99.5995 24.988 99.6235 25.252Z" fill="black"/>
</g>
<defs>
<filter id="filter0_d_298_104" x="0.838593" y="0.411987" width="111.425" height="36.332" filterUnits="userSpaceOnUse" color-interpolation-filters="sRGB">
<feFlood flood-opacity="0" result="BackgroundImageFix"/>
<feColorMatrix in="SourceAlpha" type="matrix" values="0 0 0 0 0 0 0 0 0 0 0 0 0 0 0 0 0 0 127 0" result="hardAlpha"/>
<feOffset dy="4"/>
<feGaussianBlur stdDeviation="2"/>
<feComposite in2="hardAlpha" operator="out"/>
<feColorMatrix type="matrix" values="0 0 0 0 0 0 0 0 0 0 0 0 0 0 0 0 0 0 0.25 0"/>
<feBlend mode="normal" in2="BackgroundImageFix" result="effect1_dropShadow_298_104"/>
<feBlend mode="normal" in="SourceGraphic" in2="effect1_dropShadow_298_104" result="shape"/>
</filter>
</defs>
</svg>
