<svg width="338" height="44" viewBox="0 0 338 44" fill="none" xmlns="http://www.w3.org/2000/svg">
<g filter="url(#filter0_d_298_104)">
<path d="M4.91312 29.592C4.79312 29.592 4.73312 29.496 4.73312 29.304C4.73312 29.136 4.79312 28.932 4.91312 28.692C5.03312 28.452 5.18912 28.26 5.38112 28.116C5.57312 27.996 5.77712 27.864 5.99312 27.72C6.18512 27.6 6.37712 27.492 6.56912 27.396C6.54512 27.348 6.53312 27.264 6.53312 27.144C6.53312 26.952 6.59312 26.856 6.71312 26.856C6.78512 26.856 6.89312 26.94 7.03712 27.108C8.90912 26.076 10.7331 25.32 12.5091 24.84V24.732C12.5091 24.06 12.3291 23.436 11.9691 22.86C11.6331 22.284 11.2011 21.696 10.6731 21.096C10.1451 20.496 9.60512 19.836 9.05312 19.116C8.52512 18.396 8.04512 17.58 7.61312 16.668C7.20512 15.732 6.94112 14.64 6.82112 13.392C6.79712 13.248 6.78512 13.104 6.78512 12.96C6.78512 12.816 6.78512 12.672 6.78512 12.528C6.78512 10.992 7.13312 9.6 7.82912 8.352C8.52512 7.104 9.42512 6.036 10.5291 5.148C11.6571 4.236 12.8691 3.528 14.1651 3.024C15.1971 2.616 16.3731 2.412 17.6931 2.412C18.1731 2.412 18.6291 2.448 19.0611 2.52C20.3331 2.76 21.2211 3.18 21.7251 3.78C22.2291 4.38 22.4811 4.98 22.4811 5.58C22.4811 6.036 22.3611 6.444 22.1211 6.804C21.8811 7.164 21.7131 7.344 21.6171 7.344C21.5451 7.344 21.5091 7.296 21.5091 7.2C21.5091 7.152 21.5211 7.08 21.5451 6.984C21.5931 6.864 21.6291 6.744 21.6531 6.624C21.7251 6.432 21.7731 6.264 21.7971 6.12C21.8211 5.976 21.8331 5.832 21.8331 5.688C21.8331 4.92 21.4731 4.356 20.7531 3.996C20.0571 3.612 19.3131 3.42 18.5211 3.42C18.4251 3.42 18.3171 3.42 18.1971 3.42C18.0771 3.42 17.9571 3.432 17.8371 3.456C16.3251 3.672 14.8971 4.224 13.5531 5.112C12.2091 6 11.0691 7.164 10.1331 8.604C9.22112 10.02 8.62112 11.652 8.33312 13.5C8.30912 13.668 8.28512 13.836 8.26112 14.004C8.26112 14.172 8.26112 14.328 8.26112 14.472C8.26112 15.6 8.50112 16.632 8.98112 17.568C9.46112 18.48 10.0251 19.332 10.6731 20.124C11.3451 20.916 11.9811 21.684 12.5811 22.428C13.1811 23.148 13.5891 23.868 13.8051 24.588C14.2851 24.492 14.7531 24.432 15.2091 24.408C15.6651 24.384 16.1091 24.384 16.5411 24.408C16.8771 24.456 17.0451 24.552 17.0451 24.696C17.0451 24.84 16.8051 24.912 16.3251 24.912C15.9891 24.912 15.6171 24.936 15.2091 24.984C14.8011 25.008 14.3691 25.08 13.9131 25.2C13.9371 25.272 13.9491 25.344 13.9491 25.416C13.9491 25.488 13.9491 25.548 13.9491 25.596C13.9491 25.836 13.9131 26.088 13.8411 26.352C13.5291 27.312 12.9651 28.02 12.1491 28.476C11.3331 28.932 10.5051 29.16 9.66512 29.16C8.84912 29.16 8.16512 28.992 7.61312 28.656C7.42112 28.56 7.24112 28.428 7.07312 28.26C6.76112 28.428 6.44912 28.62 6.13712 28.836C5.80112 29.052 5.47712 29.268 5.16512 29.484C5.06912 29.556 4.98512 29.592 4.91312 29.592ZM9.34112 28.512C10.0371 28.512 10.7211 28.284 11.3931 27.828C12.0651 27.396 12.4371 26.664 12.5091 25.632C10.9251 26.184 9.29312 26.952 7.61312 27.936C7.99712 28.32 8.57312 28.512 9.34112 28.512ZM33.4268 27.504C33.0908 27.504 32.8388 27.372 32.6708 27.108C32.5268 26.844 32.4548 26.484 32.4548 26.028C32.4548 25.428 32.5628 24.708 32.7788 23.868C32.9948 23.004 33.2588 22.104 33.5708 21.168C33.8828 20.232 34.2068 19.332 34.5428 18.468C34.8788 17.604 35.1788 16.836 35.4428 16.164C35.7068 15.492 35.8868 15.012 35.9828 14.724C36.0308 14.604 36.0788 14.448 36.1268 14.256C36.1988 14.04 36.2348 13.848 36.2348 13.68C36.2348 13.488 36.1868 13.332 36.0908 13.212C36.0188 13.092 35.8508 13.032 35.5868 13.032C35.2028 13.032 34.7828 13.2 34.3268 13.536C33.8948 13.848 33.4628 14.232 33.0308 14.688C32.5988 15.12 32.2148 15.552 31.8788 15.984C31.5668 16.416 31.3508 16.74 31.2308 16.956C30.4868 18.18 29.9348 19.452 29.5748 20.772C29.2148 22.068 28.9628 23.436 28.8188 24.876C28.7948 25.116 28.6748 25.38 28.4588 25.668C28.2428 25.956 28.0268 26.1 27.8108 26.1C27.6188 26.1 27.4748 25.98 27.3788 25.74C27.3068 25.572 27.2588 25.38 27.2348 25.164C27.2108 24.948 27.1988 24.72 27.1988 24.48C27.1988 24.264 27.1988 24.06 27.1988 23.868C27.2228 23.652 27.2348 23.46 27.2348 23.292C27.2588 22.548 27.2948 21.804 27.3428 21.06C27.3908 20.316 27.4148 19.572 27.4148 18.828C27.4148 18.564 27.4028 18.3 27.3788 18.036C27.3788 17.748 27.3668 17.472 27.3428 17.208C27.3188 16.872 27.2708 16.524 27.1988 16.164C27.1268 15.78 26.9468 15.468 26.6588 15.228C26.6348 15.204 26.6228 15.192 26.6228 15.192C26.6228 15.168 26.6228 15.156 26.6228 15.156C26.6228 15.06 26.7068 15.012 26.8748 15.012C27.0428 15.012 27.1628 15.048 27.2348 15.12C27.5708 15.288 27.8348 15.6 28.0268 16.056C28.2428 16.512 28.3988 17.028 28.4948 17.604C28.6148 18.18 28.6988 18.744 28.7468 19.296C28.7948 19.824 28.8308 20.268 28.8548 20.628C29.0228 20.22 29.1788 19.848 29.3228 19.512C29.4668 19.152 29.6228 18.804 29.7908 18.468C30.0308 17.988 30.3428 17.412 30.7268 16.74C31.1348 16.044 31.6028 15.372 32.1308 14.724C32.6588 14.076 33.2348 13.536 33.8588 13.104C34.4828 12.672 35.1428 12.456 35.8388 12.456C36.5828 12.456 37.0988 12.624 37.3868 12.96C37.6988 13.272 37.8548 13.668 37.8548 14.148C37.8548 14.676 37.7228 15.264 37.4588 15.912C37.2188 16.536 36.9188 17.16 36.5588 17.784C36.1988 18.408 35.8508 18.972 35.5148 19.476C35.2028 19.956 34.9748 20.328 34.8308 20.592C34.7588 20.712 34.6268 20.988 34.4348 21.42C34.2428 21.828 34.0388 22.308 33.8228 22.86C33.6068 23.388 33.4148 23.928 33.2468 24.48C33.1028 25.032 33.0308 25.5 33.0308 25.884C33.0308 26.268 33.1268 26.52 33.3188 26.64C33.5588 26.784 33.8108 26.76 34.0748 26.568C34.3628 26.376 34.6028 26.184 34.7948 25.992C34.9868 25.8 35.0588 25.776 35.0108 25.92C34.9868 26.232 34.8068 26.58 34.4708 26.964C34.1588 27.324 33.8108 27.504 33.4268 27.504ZM50.1395 26.712C49.7555 26.712 49.4315 26.508 49.1675 26.1C48.9755 25.764 48.8795 25.368 48.8795 24.912C48.8795 24.264 49.0235 23.532 49.3115 22.716C49.5995 21.9 49.9835 21.108 50.4635 20.34C50.9675 19.572 51.5195 18.924 52.1195 18.396C52.7435 17.844 53.3795 17.52 54.0275 17.424C54.2675 17.4 54.5555 17.46 54.8915 17.604C55.2275 17.748 55.5035 17.928 55.7195 18.144C55.7675 17.904 55.8035 17.676 55.8275 17.46C55.8515 17.22 55.8635 16.992 55.8635 16.776C55.8635 16.104 55.7555 15.504 55.5395 14.976C55.3235 14.448 54.9395 14.1 54.3875 13.932C54.1715 13.86 53.9315 13.824 53.6675 13.824C53.5235 13.824 53.3675 13.848 53.1995 13.896C53.0315 13.92 52.8515 13.992 52.6595 14.112C52.4675 14.208 52.2755 14.364 52.0835 14.58C51.8915 14.772 51.7595 14.952 51.6875 15.12C51.6395 15.216 51.5195 15.432 51.3275 15.768C51.1355 16.08 50.9795 16.224 50.8595 16.2C50.7635 16.176 50.7155 16.092 50.7155 15.948C50.7155 15.876 50.7395 15.768 50.7875 15.624C50.9315 15.168 51.2075 14.784 51.6155 14.472C52.0235 14.136 52.4675 13.872 52.9475 13.68C53.4275 13.464 53.8235 13.344 54.1355 13.32C54.2075 13.32 54.2795 13.32 54.3515 13.32C54.4235 13.296 54.4835 13.284 54.5315 13.284C54.9155 13.284 55.2635 13.344 55.5755 13.464C55.9115 13.56 56.1755 13.692 56.3675 13.86C56.6795 14.1 56.9315 14.412 57.1235 14.796C57.3155 15.156 57.4115 15.612 57.4115 16.164C57.4115 16.332 57.3995 16.512 57.3755 16.704C57.3515 16.896 57.3155 17.088 57.2675 17.28C57.1955 17.664 57.0995 18.156 56.9795 18.756C56.8835 19.332 56.7755 19.932 56.6555 20.556C56.5595 21.18 56.4755 21.756 56.4035 22.284C56.3555 22.788 56.3315 23.148 56.3315 23.364C56.3315 23.604 56.4035 23.88 56.5475 24.192C56.7155 24.48 56.9315 24.624 57.1955 24.624C57.3395 24.624 57.4955 24.552 57.6635 24.408C57.8555 24.264 58.0475 24.024 58.2395 23.688C58.3595 23.496 58.4675 23.4 58.5635 23.4C58.6835 23.4 58.7435 23.472 58.7435 23.616C58.7435 23.808 58.6475 24.036 58.4555 24.3C57.9995 24.948 57.4235 25.272 56.7275 25.272C56.1515 25.272 55.7435 25.032 55.5035 24.552C55.0955 23.76 54.8915 23.052 54.8915 22.428C54.8915 21.78 54.8795 21.336 54.8555 21.096C54.7355 21.384 54.5075 21.84 54.1715 22.464C53.8355 23.064 53.4395 23.7 52.9835 24.372C52.5275 25.02 52.0475 25.572 51.5435 26.028C51.0395 26.484 50.5715 26.712 50.1395 26.712ZM50.7155 25.632C50.9555 25.632 51.2315 25.512 51.5435 25.272C51.8795 25.032 52.2275 24.66 52.5875 24.156C53.0675 23.46 53.5115 22.68 53.9195 21.816C54.3275 20.952 54.6995 20.112 55.0355 19.296C54.7475 18.6 54.3875 18.252 53.9555 18.252C53.5715 18.252 53.1635 18.456 52.7315 18.864C52.2995 19.272 51.8915 19.74 51.5075 20.268C51.0275 20.988 50.6435 21.708 50.3555 22.428C50.0915 23.148 49.9595 23.76 49.9595 24.264C49.9595 25.176 50.2115 25.632 50.7155 25.632ZM76.0612 30.744C75.8212 30.744 75.6172 30.672 75.4492 30.528C75.3052 30.384 75.2932 30.216 75.4132 30.024C75.7012 29.592 75.9652 29.004 76.2052 28.26C76.4692 27.54 76.7092 26.76 76.9252 25.92C77.1412 25.08 77.3332 24.276 77.5012 23.508C77.6692 22.716 77.8012 22.044 77.8972 21.492C77.5372 22.068 77.0932 22.716 76.5652 23.436C76.0612 24.156 75.5452 24.816 75.0172 25.416C74.4892 25.992 74.0572 26.412 73.7212 26.676C72.8332 27.372 71.9092 27.72 70.9492 27.72C70.3492 27.72 69.8212 27.504 69.3652 27.072C68.9332 26.664 68.7172 25.956 68.7172 24.948C68.7172 24.444 68.8132 23.82 69.0052 23.076C69.2212 22.308 69.4972 21.516 69.8332 20.7C70.1932 19.884 70.6012 19.104 71.0572 18.36C71.5132 17.616 71.9812 16.992 72.4612 16.488C72.9652 15.984 73.4572 15.684 73.9372 15.588C74.0092 15.564 74.1172 15.552 74.2612 15.552C74.6692 15.552 74.9572 15.696 75.1252 15.984C75.3172 16.272 75.4132 16.584 75.4132 16.92C75.4132 17.208 75.3532 17.472 75.2332 17.712C75.1372 17.928 74.9932 18.036 74.8012 18.036C74.6092 18.036 74.4652 17.952 74.3692 17.784C74.2972 17.592 74.2252 17.412 74.1532 17.244C74.1052 17.052 73.9732 16.956 73.7572 16.956C73.3252 16.956 72.8932 17.244 72.4612 17.82C72.0292 18.372 71.6332 19.08 71.2732 19.944C70.9132 20.808 70.6252 21.696 70.4092 22.608C70.1932 23.52 70.0852 24.324 70.0852 25.02C70.0852 25.476 70.1452 25.86 70.2652 26.172C70.3852 26.484 70.5772 26.664 70.8412 26.712C71.4172 26.808 72.0292 26.652 72.6772 26.244C73.3492 25.812 73.9972 25.248 74.6212 24.552C75.2692 23.856 75.8572 23.136 76.3852 22.392C76.9372 21.648 77.3812 20.988 77.7172 20.412L77.8252 20.232C77.5612 19.896 77.4292 19.524 77.4292 19.116C77.4292 18.732 77.5132 18.408 77.6812 18.144C77.8732 17.88 78.0172 17.76 78.1132 17.784C78.1612 17.784 78.2212 17.808 78.2932 17.856C78.3892 17.88 78.4372 17.916 78.4372 17.964C78.6532 16.38 78.7612 14.796 78.7612 13.212C78.7612 11.94 78.6892 10.752 78.5452 9.648C78.4252 8.544 78.2332 7.62 77.9692 6.876C77.8972 6.612 77.8612 6.42 77.8612 6.3C77.8612 6.108 77.9212 6.012 78.0412 6.012C78.1612 6.012 78.3052 6.108 78.4732 6.3C78.6412 6.492 78.7852 6.768 78.9052 7.128C79.1452 7.728 79.3252 8.652 79.4452 9.9C79.5892 11.148 79.6612 12.552 79.6612 14.112C79.6612 15 79.6372 15.936 79.5892 16.92C79.5412 17.88 79.4692 18.852 79.3732 19.836L79.4092 19.8C79.8172 19.392 80.2372 19.02 80.6692 18.684C81.1252 18.348 81.5332 17.964 81.8932 17.532V17.496C81.8932 17.448 81.8692 17.4 81.8212 17.352C81.7972 17.304 81.7852 17.232 81.7852 17.136C81.7852 16.968 81.9052 16.764 82.1452 16.524C82.3852 16.284 82.6972 15.948 83.0812 15.516C83.4892 15.06 83.9092 14.652 84.3412 14.292C84.7732 13.908 85.1692 13.728 85.5292 13.752C85.8172 13.752 85.9612 13.848 85.9612 14.04C85.9612 14.256 85.7572 14.58 85.3492 15.012C84.9412 15.444 84.4492 15.9 83.8732 16.38C83.3212 16.86 82.8052 17.304 82.3252 17.712C81.8692 18.096 81.5692 18.36 81.4252 18.504L80.0572 20.016L79.4812 20.628C79.6492 21.204 79.8652 21.864 80.1292 22.608C80.3932 23.352 80.6932 24.06 81.0292 24.732C81.3892 25.404 81.7852 25.968 82.2172 26.424C82.6492 26.856 83.1172 27.072 83.6212 27.072C84.1972 27.072 84.7612 26.76 85.3132 26.136C85.6012 25.8 85.9012 25.38 86.2132 24.876C86.5492 24.348 86.8492 23.844 87.1132 23.364C87.4012 22.884 87.6052 22.536 87.7252 22.32C87.8452 22.08 87.9652 21.924 88.0852 21.852C88.2052 21.756 88.3012 21.708 88.3732 21.708C88.5412 21.708 88.6012 21.828 88.5532 22.068C88.4572 22.38 88.2532 22.836 87.9412 23.436C87.6532 24.036 87.3532 24.6 87.0412 25.128C86.7532 25.656 86.5492 26.004 86.4292 26.172C85.9972 26.844 85.5412 27.324 85.0612 27.612C84.6052 27.9 84.1372 28.044 83.6572 28.044C83.0092 28.044 82.3732 27.792 81.7492 27.288C81.1492 26.808 80.6092 26.148 80.1292 25.308C79.6732 24.468 79.3132 23.532 79.0492 22.5C78.7852 24.324 78.4612 25.956 78.0772 27.396C77.6932 28.86 77.2732 29.868 76.8172 30.42C76.6012 30.636 76.3492 30.744 76.0612 30.744ZM99.41 28.224C98.954 28.224 98.642 28.092 98.474 27.828C98.378 27.684 98.33 27.528 98.33 27.36C98.33 27.168 98.414 26.94 98.582 26.676C98.75 26.412 99.05 26.172 99.482 25.956C99.53 25.932 99.71 25.824 100.022 25.632C100.358 25.44 100.562 25.332 100.634 25.308C100.49 24.78 100.238 24.252 99.878 23.724C99.518 23.172 99.194 22.548 98.906 21.852C98.618 21.156 98.498 20.292 98.546 19.26C98.594 18.276 98.858 17.424 99.338 16.704C99.818 15.984 100.43 15.396 101.174 14.94C101.942 14.484 102.734 14.172 103.55 14.004C103.742 13.956 103.946 13.92 104.162 13.896C104.378 13.872 104.594 13.86 104.81 13.86C105.41 13.86 105.938 13.932 106.394 14.076C106.874 14.22 107.282 14.46 107.618 14.796C107.978 15.132 108.158 15.504 108.158 15.912C108.158 16.176 108.074 16.44 107.906 16.704C107.858 16.8 107.786 16.896 107.69 16.992C107.594 17.088 107.474 17.136 107.33 17.136C107.234 17.136 107.186 17.064 107.186 16.92C107.186 16.8 107.21 16.644 107.258 16.452C107.33 16.26 107.378 16.14 107.402 16.092C107.426 16.044 107.438 15.96 107.438 15.84C107.438 15.576 107.366 15.36 107.222 15.192C107.054 14.976 106.79 14.844 106.43 14.796C106.094 14.748 105.782 14.724 105.494 14.724C104.654 14.724 103.826 14.952 103.01 15.408C102.194 15.864 101.474 16.452 100.85 17.172C100.25 17.868 99.83 18.612 99.59 19.404C99.518 19.62 99.47 19.836 99.446 20.052C99.422 20.244 99.41 20.436 99.41 20.628C99.41 21.468 99.602 22.272 99.986 23.04C100.37 23.808 100.706 24.516 100.994 25.164C101.666 24.804 102.266 24.552 102.794 24.408C102.866 24.384 102.926 24.372 102.974 24.372C103.046 24.372 103.094 24.372 103.118 24.372C103.238 24.372 103.298 24.408 103.298 24.48C103.298 24.6 103.142 24.72 102.83 24.84C102.758 24.864 102.578 24.936 102.29 25.056C102.002 25.176 101.654 25.344 101.246 25.56C101.366 25.872 101.426 26.172 101.426 26.46C101.426 26.748 101.354 27.024 101.21 27.288C101.066 27.552 100.814 27.768 100.454 27.936C100.094 28.128 99.746 28.224 99.41 28.224ZM99.518 27.252C99.542 27.42 99.65 27.456 99.842 27.36C100.058 27.264 100.274 27.096 100.49 26.856C100.706 26.616 100.814 26.376 100.814 26.136C100.814 26.088 100.814 26.04 100.814 25.992C100.838 25.92 100.838 25.848 100.814 25.776C100.454 25.992 100.142 26.232 99.878 26.496C99.614 26.736 99.494 26.988 99.518 27.252ZM147.386 35.424C146.858 35.424 146.342 35.292 145.838 35.028C145.334 34.764 144.974 34.332 144.758 33.732C144.734 33.66 144.758 33.6 144.83 33.552C144.902 33.528 144.962 33.576 145.01 33.696C145.25 34.152 145.55 34.488 145.91 34.704C146.294 34.92 146.69 35.028 147.098 35.028C147.194 35.028 147.29 35.016 147.386 34.992C147.506 34.992 147.614 34.98 147.71 34.956C148.526 34.764 149.162 34.284 149.618 33.516C150.098 32.748 150.434 31.848 150.626 30.816C150.842 29.784 150.974 28.74 151.022 27.684C151.07 26.652 151.082 25.764 151.058 25.02C150.386 25.404 149.69 25.74 148.97 26.028C148.274 26.316 147.542 26.556 146.774 26.748C146.414 26.844 145.994 26.928 145.514 27C145.058 27.048 144.566 27.072 144.038 27.072C143.102 27.072 142.178 26.904 141.266 26.568C140.378 26.208 139.766 25.536 139.43 24.552C139.334 24.312 139.274 24.072 139.25 23.832C139.226 23.568 139.214 23.316 139.214 23.076C139.214 22.38 139.31 21.708 139.502 21.06C139.718 20.388 139.946 19.788 140.186 19.26C139.634 18.924 139.142 18.516 138.71 18.036C138.302 17.556 137.99 17.004 137.774 16.38C137.678 16.092 137.606 15.804 137.558 15.516C137.51 15.228 137.486 14.952 137.486 14.688C137.486 13.608 137.786 12.624 138.386 11.736C138.986 10.824 139.73 10.056 140.618 9.432C141.506 8.808 142.382 8.4 143.246 8.208C143.342 8.184 143.558 8.148 143.894 8.1C144.254 8.052 144.59 8.028 144.902 8.028C145.286 8.028 145.49 8.076 145.514 8.172C145.562 8.268 145.526 8.316 145.406 8.316C145.07 8.316 144.746 8.316 144.434 8.316C144.122 8.316 143.798 8.352 143.462 8.424C142.646 8.616 141.842 9 141.05 9.576C140.282 10.128 139.634 10.812 139.106 11.628C138.602 12.444 138.35 13.344 138.35 14.328C138.35 14.592 138.374 14.868 138.422 15.156C138.47 15.42 138.542 15.696 138.638 15.984C138.998 16.992 139.646 17.82 140.582 18.468C141.374 16.956 142.25 15.636 143.21 14.508C144.17 13.356 145.178 12.264 146.234 11.232C147.29 10.176 148.358 9.06 149.438 7.884C149.438 7.668 149.426 7.44 149.402 7.2C149.402 6.96 149.402 6.72 149.402 6.48C149.402 5.904 149.426 5.328 149.474 4.752C149.546 4.152 149.678 3.636 149.87 3.204C150.014 2.892 150.194 2.58 150.41 2.268C150.65 1.932 150.95 1.764 151.31 1.764C151.55 1.764 151.754 1.848 151.922 2.016C152.09 2.16 152.222 2.352 152.318 2.592C152.414 2.808 152.462 3.072 152.462 3.384C152.462 3.912 152.318 4.44 152.03 4.968C151.766 5.496 151.454 5.988 151.094 6.444C150.734 6.876 150.41 7.26 150.122 7.596C150.122 8.58 150.194 9.588 150.338 10.62C150.506 11.628 150.662 12.624 150.806 13.608C151.358 12.912 152.006 12.264 152.75 11.664C153.518 11.04 154.346 10.62 155.234 10.404C155.522 10.332 155.834 10.296 156.17 10.296C156.65 10.296 157.106 10.416 157.538 10.656C157.994 10.872 158.33 11.292 158.546 11.916C158.69 12.348 158.762 12.828 158.762 13.356C158.762 13.98 158.678 14.628 158.51 15.3C158.342 15.948 158.174 16.512 158.006 16.992C157.454 18.48 156.698 19.824 155.738 21.024C154.778 22.2 153.662 23.208 152.39 24.048C152.414 24.432 152.438 24.828 152.462 25.236C152.486 25.644 152.498 26.052 152.498 26.46C152.498 27.708 152.378 28.956 152.138 30.204C151.922 31.476 151.514 32.568 150.914 33.48C150.314 34.416 149.426 35.028 148.25 35.316C148.01 35.388 147.722 35.424 147.386 35.424ZM150.122 7.092C150.29 6.9 150.506 6.576 150.77 6.12C151.058 5.64 151.31 5.136 151.526 4.608C151.742 4.08 151.85 3.648 151.85 3.312C151.85 3.168 151.838 3.072 151.814 3.024C151.79 2.952 151.754 2.88 151.706 2.808C151.658 2.736 151.586 2.7 151.49 2.7C151.346 2.7 151.19 2.808 151.022 3.024C150.878 3.216 150.782 3.384 150.734 3.528C150.518 3.984 150.362 4.572 150.266 5.292C150.194 5.988 150.146 6.588 150.122 7.092ZM143.03 19.26C143.822 19.26 144.578 19.08 145.298 18.72C146.042 18.336 146.726 17.868 147.35 17.316C147.974 16.764 148.514 16.236 148.97 15.732C149.45 15.204 149.81 14.796 150.05 14.508C149.93 13.476 149.81 12.456 149.69 11.448C149.594 10.416 149.51 9.384 149.438 8.352C148.862 8.976 148.274 9.588 147.674 10.188C147.074 10.788 146.498 11.412 145.946 12.06C145.322 12.78 144.734 13.548 144.182 14.364C143.654 15.156 143.162 15.984 142.706 16.848C142.514 17.184 142.334 17.532 142.166 17.892C141.998 18.252 141.83 18.624 141.662 19.008C142.094 19.176 142.55 19.26 143.03 19.26ZM152.282 23.508C153.41 22.788 154.394 21.948 155.234 20.988C156.098 20.004 156.77 18.852 157.25 17.532C157.466 16.932 157.622 16.392 157.718 15.912C157.814 15.408 157.862 14.952 157.862 14.544C157.862 13.584 157.634 12.864 157.178 12.384C156.722 11.904 156.134 11.664 155.414 11.664C154.766 11.664 154.046 11.868 153.254 12.276C152.462 12.66 151.67 13.248 150.878 14.04C151.118 15.624 151.382 17.208 151.67 18.792C151.982 20.376 152.186 21.948 152.282 23.508ZM145.37 26.028C145.778 26.028 146.174 26.004 146.558 25.956C146.966 25.884 147.326 25.812 147.638 25.74C148.838 25.452 149.954 25.02 150.986 24.444C150.962 22.86 150.854 21.276 150.662 19.692C150.494 18.084 150.314 16.476 150.122 14.868C149.858 15.324 149.486 15.852 149.006 16.452C148.526 17.028 147.962 17.592 147.314 18.144C146.666 18.672 145.958 19.116 145.19 19.476C144.446 19.836 143.666 20.016 142.85 20.016C142.37 20.016 141.89 19.944 141.41 19.8C141.314 20.136 141.218 20.508 141.122 20.916C141.05 21.324 141.014 21.732 141.014 22.14C141.014 22.644 141.086 23.148 141.23 23.652C141.566 24.564 142.13 25.188 142.922 25.524C143.738 25.86 144.554 26.028 145.37 26.028ZM200.918 31.392C199.478 31.392 198.194 30.648 197.066 29.16C195.53 29.616 194.126 29.844 192.854 29.844C191.462 29.844 190.37 29.58 189.578 29.052C188.786 28.548 188.39 27.912 188.39 27.144C188.39 26.544 188.642 25.896 189.146 25.2C189.65 24.504 190.43 23.82 191.486 23.148C191.918 22.884 192.386 22.62 192.89 22.356C193.418 22.092 193.982 21.852 194.582 21.636C194.51 20.868 194.474 20.052 194.474 19.188C194.474 17.22 194.69 15.06 195.122 12.708C195.554 10.332 196.274 7.776 197.282 5.04C195.506 5.928 193.874 6.984 192.386 8.208C190.898 9.408 189.746 10.644 188.93 11.916C188.666 12.348 188.342 12.564 187.958 12.564C187.694 12.564 187.562 12.432 187.562 12.168C187.562 11.976 187.67 11.688 187.886 11.304C188.078 10.92 188.426 10.44 188.93 9.864C189.89 8.76 191.138 7.692 192.674 6.66C194.21 5.628 195.89 4.74 197.714 3.996C198.122 2.868 198.59 1.764 199.118 0.684C199.262 0.372 199.478 0.215999 199.766 0.215999C199.958 0.215999 200.114 0.287999 200.234 0.431999C200.378 0.551999 200.45 0.707999 200.45 0.899999C200.45 0.995999 200.426 1.116 200.378 1.26C200.234 1.596 200.09 1.932 199.946 2.268C199.826 2.604 199.706 2.94 199.586 3.276C199.922 3.156 200.27 3.048 200.63 2.952C200.99 2.856 201.338 2.76 201.674 2.664C203.546 2.232 205.214 2.016 206.678 2.016C208.598 2.016 210.182 2.34 211.43 2.988C212.678 3.636 213.602 4.524 214.202 5.652C214.802 6.756 215.102 8.016 215.102 9.432C215.102 10.896 214.79 12.444 214.166 14.076C213.566 15.708 212.678 17.352 211.502 19.008C210.326 20.64 208.862 22.188 207.11 23.652C205.382 25.116 203.402 26.412 201.17 27.54C199.994 28.116 198.878 28.584 197.822 28.944C198.398 29.544 198.986 29.964 199.586 30.204C200.186 30.444 200.678 30.564 201.062 30.564C201.398 30.564 201.638 30.492 201.782 30.348C201.998 30.108 202.226 29.988 202.466 29.988C202.634 29.988 202.778 30.036 202.898 30.132C203.018 30.228 203.078 30.336 203.078 30.456C203.078 30.648 202.922 30.828 202.61 30.996C202.322 31.14 202.034 31.236 201.746 31.284C201.458 31.356 201.182 31.392 200.918 31.392ZM197.462 28.512C198.014 28.32 198.59 28.08 199.19 27.792C199.814 27.528 200.45 27.204 201.098 26.82C203.81 25.26 206.054 23.508 207.83 21.564C209.63 19.596 210.974 17.604 211.862 15.588C212.774 13.572 213.23 11.7 213.23 9.972C213.23 7.908 212.606 6.216 211.358 4.896C210.11 3.552 208.238 2.88 205.742 2.88C204.542 2.88 203.186 3.06 201.674 3.42C201.266 3.516 200.858 3.636 200.45 3.78C200.042 3.9 199.634 4.044 199.226 4.212C197.762 8.052 196.754 11.376 196.202 14.184C195.65 16.968 195.386 19.344 195.41 21.312C196.586 20.904 197.846 20.58 199.19 20.34C200.558 20.1 201.974 19.98 203.438 19.98C203.702 19.98 203.966 19.992 204.23 20.016C204.518 20.016 204.806 20.028 205.094 20.052C205.406 20.076 205.562 20.148 205.562 20.268C205.562 20.46 205.202 20.556 204.482 20.556C204.17 20.556 203.846 20.544 203.51 20.52C203.198 20.496 202.886 20.484 202.574 20.484C201.23 20.484 199.946 20.616 198.722 20.88C197.498 21.144 196.394 21.48 195.41 21.888C195.482 23.496 195.71 24.84 196.094 25.92C196.478 26.976 196.934 27.84 197.462 28.512ZM193.862 29.16C194.702 29.16 195.662 29.016 196.742 28.728C196.238 27.96 195.794 27.036 195.41 25.956C195.05 24.852 194.786 23.604 194.618 22.212C193.466 22.788 192.53 23.4 191.81 24.048C191.258 24.528 190.85 25.008 190.586 25.488C190.322 25.968 190.19 26.412 190.19 26.82C190.19 27.492 190.514 28.044 191.162 28.476C191.81 28.932 192.71 29.16 193.862 29.16ZM229.404 27.468C228.54 27.468 227.784 26.964 227.136 25.956C226.512 24.924 226.2 23.304 226.2 21.096C226.2 19.656 226.38 18.504 226.74 17.64C227.1 16.752 227.544 16.104 228.072 15.696C228.6 15.288 229.104 15.084 229.584 15.084C230.064 15.084 230.472 15.252 230.808 15.588C231.144 15.9 231.312 16.356 231.312 16.956C231.312 17.532 231.144 18.144 230.808 18.792C230.472 19.416 230.064 19.992 229.584 20.52C229.128 21.024 228.672 21.36 228.216 21.528C228.12 21.576 228 21.6 227.856 21.6C227.76 21.6 227.712 21.564 227.712 21.492C227.712 21.3 227.904 21.084 228.288 20.844C228.768 20.508 229.224 20.004 229.656 19.332C230.088 18.636 230.304 18.024 230.304 17.496C230.304 17.184 230.232 16.944 230.088 16.776C229.944 16.584 229.776 16.488 229.584 16.488C229.224 16.488 228.828 16.776 228.396 17.352C227.988 17.904 227.688 18.864 227.496 20.232C227.448 20.616 227.4 20.988 227.352 21.348C227.328 21.684 227.316 22.02 227.316 22.356C227.316 23.7 227.52 24.756 227.928 25.524C228.336 26.268 228.876 26.64 229.548 26.64C230.124 26.64 230.772 26.304 231.492 25.632C232.212 24.936 232.92 23.856 233.616 22.392C233.784 22.008 233.976 21.816 234.192 21.816C234.336 21.816 234.408 21.912 234.408 22.104C234.408 22.272 234.36 22.452 234.264 22.644C233.64 24.18 232.884 25.368 231.996 26.208C231.108 27.048 230.244 27.468 229.404 27.468ZM252.921 26.388C252.585 26.388 252.309 26.28 252.093 26.064C251.973 25.944 251.913 25.776 251.913 25.56C251.913 25.344 251.997 25.116 252.165 24.876C252.333 24.612 252.609 24.36 252.993 24.12C253.041 24.072 253.221 23.94 253.533 23.724C253.845 23.508 254.025 23.388 254.073 23.364C253.905 22.836 253.605 22.32 253.173 21.816C252.765 21.312 252.381 20.712 252.021 20.016C251.685 19.296 251.517 18.396 251.517 17.316C251.517 16.38 251.733 15.552 252.165 14.832C252.621 14.088 253.197 13.464 253.893 12.96C254.613 12.456 255.357 12.084 256.125 11.844C256.365 11.748 256.617 11.688 256.881 11.664C257.169 11.616 257.445 11.592 257.709 11.592C257.925 11.592 258.141 11.604 258.357 11.628C258.573 11.652 258.765 11.688 258.933 11.736C259.437 11.832 259.881 12.036 260.265 12.348C260.673 12.66 260.877 13.044 260.877 13.5C260.877 13.716 260.805 13.956 260.661 14.22C260.613 14.316 260.541 14.412 260.445 14.508C260.373 14.604 260.265 14.664 260.121 14.688C260.001 14.688 259.941 14.592 259.941 14.4C259.941 14.256 259.953 14.112 259.977 13.968C260.025 13.8 260.061 13.692 260.085 13.644C260.109 13.596 260.121 13.524 260.121 13.428C260.121 13.164 260.037 12.948 259.869 12.78C259.653 12.564 259.377 12.456 259.041 12.456C258.705 12.432 258.393 12.432 258.105 12.456C257.265 12.528 256.449 12.828 255.657 13.356C254.889 13.86 254.229 14.496 253.677 15.264C253.125 16.008 252.765 16.776 252.597 17.568C252.525 17.88 252.489 18.192 252.489 18.504C252.489 19.392 252.717 20.22 253.173 20.988C253.653 21.756 254.073 22.488 254.433 23.184C254.721 22.992 255.021 22.824 255.333 22.68C255.645 22.512 255.921 22.392 256.161 22.32C256.257 22.272 256.329 22.248 256.377 22.248C256.449 22.248 256.497 22.248 256.521 22.248C256.617 22.248 256.665 22.272 256.665 22.32C256.665 22.464 256.521 22.596 256.233 22.716C256.161 22.74 255.981 22.824 255.693 22.968C255.429 23.112 255.093 23.316 254.685 23.58C254.853 23.916 254.937 24.264 254.937 24.624C254.937 24.864 254.901 25.092 254.829 25.308C254.685 25.62 254.421 25.884 254.037 26.1C253.677 26.292 253.305 26.388 252.921 26.388ZM248.817 28.44C248.625 28.44 248.493 28.416 248.421 28.368C248.109 28.224 247.953 27.936 247.953 27.504C247.953 27.12 248.121 26.688 248.457 26.208C248.481 26.184 248.541 26.088 248.637 25.92C248.757 25.752 248.865 25.584 248.961 25.416C249.081 25.248 249.153 25.152 249.177 25.128C248.793 24.72 248.313 24.372 247.737 24.084C247.185 23.772 246.609 23.376 246.009 22.896C245.433 22.416 244.917 21.708 244.461 20.772C244.293 20.412 244.161 20.052 244.065 19.692C243.993 19.308 243.957 18.936 243.957 18.576C243.957 17.64 244.197 16.752 244.677 15.912C245.157 15.072 245.733 14.352 246.405 13.752C246.741 13.44 247.137 13.176 247.593 12.96C248.073 12.744 248.529 12.588 248.961 12.492C249.081 12.468 249.189 12.456 249.285 12.456C249.405 12.432 249.513 12.42 249.609 12.42C250.137 12.42 250.593 12.552 250.977 12.816C251.361 13.056 251.553 13.452 251.553 14.004C251.553 14.1 251.529 14.232 251.481 14.4C251.457 14.544 251.385 14.664 251.265 14.76H251.193C251.073 14.76 250.977 14.628 250.905 14.364C250.857 14.076 250.821 13.884 250.797 13.788C250.773 13.62 250.701 13.476 250.581 13.356C250.461 13.236 250.341 13.152 250.221 13.104C250.077 13.056 249.945 13.032 249.825 13.032C249.609 13.032 249.381 13.08 249.141 13.176C248.901 13.272 248.685 13.38 248.493 13.5C247.869 13.836 247.317 14.328 246.837 14.976C246.357 15.6 245.985 16.296 245.721 17.064C245.481 17.808 245.361 18.552 245.361 19.296C245.361 19.656 245.397 20.016 245.469 20.376C245.613 21.12 245.913 21.756 246.369 22.284C246.825 22.812 247.329 23.268 247.881 23.652C248.457 24.036 248.973 24.42 249.429 24.804C249.621 24.54 249.825 24.276 250.041 24.012C250.257 23.724 250.461 23.496 250.653 23.328C250.821 23.16 250.953 23.076 251.049 23.076C251.097 23.076 251.121 23.112 251.121 23.184C251.121 23.328 251.037 23.484 250.869 23.652C250.821 23.7 250.689 23.856 250.473 24.12C250.281 24.36 250.053 24.672 249.789 25.056C250.053 25.272 250.257 25.5 250.401 25.74C250.545 25.98 250.617 26.256 250.617 26.568C250.593 27 250.389 27.42 250.005 27.828C249.621 28.236 249.225 28.44 248.817 28.44ZM253.281 25.524C253.473 25.524 253.689 25.38 253.929 25.092C254.193 24.804 254.325 24.516 254.325 24.228C254.325 24.156 254.313 24.096 254.289 24.048C254.289 23.976 254.289 23.892 254.289 23.796C253.977 24.036 253.701 24.288 253.461 24.552C253.221 24.792 253.101 25.032 253.101 25.272C253.101 25.44 253.161 25.524 253.281 25.524ZM249.069 27.36C249.189 27.528 249.333 27.456 249.501 27.144C249.693 26.832 249.789 26.508 249.789 26.172C249.789 25.956 249.765 25.812 249.717 25.74C249.693 25.692 249.669 25.644 249.645 25.596C249.621 25.524 249.585 25.476 249.537 25.452C249.369 25.692 249.225 25.944 249.105 26.208C249.009 26.472 248.961 26.712 248.961 26.928C248.961 27.096 248.997 27.24 249.069 27.36ZM272.203 27.468C271.339 27.468 270.583 26.964 269.935 25.956C269.311 24.924 268.999 23.304 268.999 21.096C268.999 19.656 269.179 18.504 269.539 17.64C269.899 16.752 270.343 16.104 270.871 15.696C271.399 15.288 271.903 15.084 272.383 15.084C272.863 15.084 273.271 15.252 273.607 15.588C273.943 15.9 274.111 16.356 274.111 16.956C274.111 17.532 273.943 18.144 273.607 18.792C273.271 19.416 272.863 19.992 272.383 20.52C271.927 21.024 271.471 21.36 271.015 21.528C270.919 21.576 270.799 21.6 270.655 21.6C270.559 21.6 270.511 21.564 270.511 21.492C270.511 21.3 270.703 21.084 271.087 20.844C271.567 20.508 272.023 20.004 272.455 19.332C272.887 18.636 273.103 18.024 273.103 17.496C273.103 17.184 273.031 16.944 272.887 16.776C272.743 16.584 272.575 16.488 272.383 16.488C272.023 16.488 271.627 16.776 271.195 17.352C270.787 17.904 270.487 18.864 270.295 20.232C270.247 20.616 270.199 20.988 270.151 21.348C270.127 21.684 270.115 22.02 270.115 22.356C270.115 23.7 270.319 24.756 270.727 25.524C271.135 26.268 271.675 26.64 272.347 26.64C272.923 26.64 273.571 26.304 274.291 25.632C275.011 24.936 275.719 23.856 276.415 22.392C276.583 22.008 276.775 21.816 276.991 21.816C277.135 21.816 277.207 21.912 277.207 22.104C277.207 22.272 277.159 22.452 277.063 22.644C276.439 24.18 275.683 25.368 274.795 26.208C273.907 27.048 273.043 27.468 272.203 27.468ZM291.724 28.8C290.956 28.8 290.368 28.44 289.96 27.72C289.552 27.024 289.348 26.256 289.348 25.416C289.348 24.624 289.48 23.796 289.744 22.932C290.008 22.068 290.332 21.216 290.716 20.376C291.124 19.536 291.544 18.768 291.976 18.072C291.544 18.24 291.136 18.324 290.752 18.324C290.56 18.324 290.392 18.3 290.248 18.252C290.104 18.204 289.984 18.168 289.888 18.144C289.768 18.432 289.552 18.912 289.24 19.584C288.952 20.256 288.64 20.964 288.304 21.708C287.992 22.428 287.716 23.04 287.476 23.544C287.092 24.36 286.756 24.768 286.468 24.768C286.324 24.768 286.252 24.672 286.252 24.48C286.252 24.336 286.312 24.144 286.432 23.904C286.984 22.872 287.5 21.852 287.98 20.844C288.484 19.836 288.94 18.864 289.348 17.928C289.3 17.808 289.252 17.652 289.204 17.46C289.156 17.244 289.132 17.016 289.132 16.776C289.132 16.512 289.156 16.236 289.204 15.948C289.276 15.636 289.372 15.336 289.492 15.048C289.564 14.88 289.696 14.64 289.888 14.328C290.08 13.992 290.296 13.692 290.536 13.428C290.776 13.14 291.004 12.996 291.22 12.996C291.628 12.996 291.832 13.212 291.832 13.644C291.832 14.052 291.7 14.52 291.436 15.048C291.196 15.576 290.944 16.068 290.68 16.524C290.416 16.956 290.284 17.28 290.284 17.496C290.284 17.688 290.38 17.784 290.572 17.784C290.836 17.784 291.16 17.652 291.544 17.388C291.952 17.1 292.276 16.836 292.516 16.596C292.636 16.476 292.828 16.296 293.092 16.056C293.356 15.792 293.608 15.66 293.848 15.66C294.088 15.66 294.244 15.732 294.316 15.876C294.412 16.02 294.46 16.188 294.46 16.38C294.46 16.596 294.364 16.872 294.172 17.208C293.98 17.52 293.752 17.832 293.488 18.144C293.248 18.456 293.044 18.72 292.876 18.936C292.54 19.44 292.156 20.076 291.724 20.844C291.292 21.612 290.92 22.44 290.608 23.328C290.296 24.192 290.14 25.02 290.14 25.812C290.14 26.34 290.272 26.892 290.536 27.468C290.8 28.044 291.16 28.332 291.616 28.332C292.024 28.332 292.456 28.116 292.912 27.684C293.392 27.252 293.836 26.736 294.244 26.136C294.676 25.536 295.048 24.96 295.36 24.408C295.696 23.856 295.924 23.472 296.044 23.256C296.092 23.136 296.176 22.992 296.296 22.824C296.416 22.632 296.56 22.536 296.728 22.536C296.872 22.536 296.944 22.608 296.944 22.752C296.944 22.872 296.908 23.016 296.836 23.184C296.788 23.328 296.74 23.46 296.692 23.58C296.476 24.084 296.212 24.612 295.9 25.164C295.588 25.716 295.372 26.088 295.252 26.28C294.916 26.832 294.412 27.384 293.74 27.936C293.092 28.512 292.42 28.8 291.724 28.8ZM310.114 32.76C309.874 32.76 309.622 32.604 309.358 32.292C309.118 32.004 308.89 31.596 308.674 31.068C308.314 30.204 308.062 29.292 307.918 28.332C307.774 27.396 307.702 26.448 307.702 25.488C307.702 24.432 307.774 23.4 307.918 22.392C308.062 21.384 308.218 20.472 308.386 19.656C308.506 19.08 308.65 18.468 308.818 17.82C308.986 17.172 309.142 16.656 309.286 16.272C309.142 16.296 308.914 16.38 308.602 16.524C308.29 16.668 307.966 16.812 307.63 16.956C307.318 17.1 307.042 17.172 306.802 17.172C306.442 17.172 306.262 16.968 306.262 16.56C306.262 16.344 306.334 16.152 306.478 15.984C306.646 15.816 306.85 15.684 307.09 15.588C307.57 15.372 308.098 15.216 308.674 15.12C309.25 15 309.634 14.88 309.826 14.76L310.762 12.384C310.858 12.144 311.026 11.76 311.266 11.232C311.53 10.68 311.83 10.092 312.166 9.468C312.526 8.844 312.874 8.28 313.21 7.776C313.474 7.392 313.726 7.092 313.966 6.876C314.206 6.636 314.47 6.516 314.758 6.516C315.19 6.516 315.406 6.684 315.406 7.02C315.406 7.212 315.322 7.5 315.154 7.884C315.01 8.268 314.734 8.772 314.326 9.396C313.87 10.116 313.402 10.836 312.922 11.556C312.466 12.252 312.07 12.984 311.734 13.752C311.71 13.848 311.65 14.004 311.554 14.22C311.482 14.412 311.422 14.532 311.374 14.58L312.094 14.472C312.286 14.448 312.502 14.436 312.742 14.436C312.982 14.412 313.246 14.4 313.534 14.4C313.942 14.4 314.326 14.424 314.686 14.472C315.07 14.496 315.382 14.556 315.622 14.652C315.742 14.7 315.85 14.76 315.946 14.832C316.066 14.88 316.126 14.928 316.126 14.976C316.126 15.072 315.814 15.12 315.19 15.12C314.83 15.12 314.314 15.18 313.642 15.3C312.994 15.42 312.25 15.612 311.41 15.876C311.002 15.996 310.726 16.164 310.582 16.38C310.438 16.596 310.246 17.112 310.006 17.928C309.646 19.224 309.358 20.472 309.142 21.672C308.926 22.848 308.758 24.048 308.638 25.272C308.614 25.512 308.59 25.764 308.566 26.028C308.566 26.292 308.566 26.58 308.566 26.892C308.566 27.708 308.638 28.56 308.782 29.448C308.95 30.336 309.19 31.104 309.502 31.752C309.574 31.896 309.646 32.028 309.718 32.148C309.814 32.268 309.922 32.352 310.042 32.4C310.21 32.472 310.294 32.556 310.294 32.652C310.294 32.724 310.234 32.76 310.114 32.76ZM324.621 28.224C324.165 28.224 323.853 28.092 323.685 27.828C323.589 27.684 323.541 27.528 323.541 27.36C323.541 27.168 323.625 26.94 323.793 26.676C323.961 26.412 324.261 26.172 324.693 25.956C324.741 25.932 324.921 25.824 325.233 25.632C325.569 25.44 325.773 25.332 325.845 25.308C325.701 24.78 325.449 24.252 325.089 23.724C324.729 23.172 324.405 22.548 324.117 21.852C323.829 21.156 323.709 20.292 323.757 19.26C323.805 18.276 324.069 17.424 324.549 16.704C325.029 15.984 325.641 15.396 326.385 14.94C327.153 14.484 327.945 14.172 328.761 14.004C328.953 13.956 329.157 13.92 329.373 13.896C329.589 13.872 329.805 13.86 330.021 13.86C330.621 13.86 331.149 13.932 331.605 14.076C332.085 14.22 332.493 14.46 332.829 14.796C333.189 15.132 333.369 15.504 333.369 15.912C333.369 16.176 333.285 16.44 333.117 16.704C333.069 16.8 332.997 16.896 332.901 16.992C332.805 17.088 332.685 17.136 332.541 17.136C332.445 17.136 332.397 17.064 332.397 16.92C332.397 16.8 332.421 16.644 332.469 16.452C332.541 16.26 332.589 16.14 332.613 16.092C332.637 16.044 332.649 15.96 332.649 15.84C332.649 15.576 332.577 15.36 332.433 15.192C332.265 14.976 332.001 14.844 331.641 14.796C331.305 14.748 330.993 14.724 330.705 14.724C329.865 14.724 329.037 14.952 328.221 15.408C327.405 15.864 326.685 16.452 326.061 17.172C325.461 17.868 325.041 18.612 324.801 19.404C324.729 19.62 324.681 19.836 324.657 20.052C324.633 20.244 324.621 20.436 324.621 20.628C324.621 21.468 324.813 22.272 325.197 23.04C325.581 23.808 325.917 24.516 326.205 25.164C326.877 24.804 327.477 24.552 328.005 24.408C328.077 24.384 328.137 24.372 328.185 24.372C328.257 24.372 328.305 24.372 328.329 24.372C328.449 24.372 328.509 24.408 328.509 24.48C328.509 24.6 328.353 24.72 328.041 24.84C327.969 24.864 327.789 24.936 327.501 25.056C327.213 25.176 326.865 25.344 326.457 25.56C326.577 25.872 326.637 26.172 326.637 26.46C326.637 26.748 326.565 27.024 326.421 27.288C326.277 27.552 326.025 27.768 325.665 27.936C325.305 28.128 324.957 28.224 324.621 28.224ZM324.729 27.252C324.753 27.42 324.861 27.456 325.053 27.36C325.269 27.264 325.485 27.096 325.701 26.856C325.917 26.616 326.025 26.376 326.025 26.136C326.025 26.088 326.025 26.04 326.025 25.992C326.049 25.92 326.049 25.848 326.025 25.776C325.665 25.992 325.353 26.232 325.089 26.496C324.825 26.736 324.705 26.988 324.729 27.252Z" fill="black"/>
</g>
<defs>
<filter id="filter0_d_298_104" x="0.733124" y="0.216003" width="336.636" height="43.208" filterUnits="userSpaceOnUse" color-interpolation-filters="sRGB">
<feFlood flood-opacity="0" result="BackgroundImageFix"/>
<feColorMatrix in="SourceAlpha" type="matrix" values="0 0 0 0 0 0 0 0 0 0 0 0 0 0 0 0 0 0 127 0" result="hardAlpha"/>
<feOffset dy="4"/>
<feGaussianBlur stdDeviation="2"/>
<feComposite in2="hardAlpha" operator="out"/>
<feColorMatrix type="matrix" values="0 0 0 0 0 0 0 0 0 0 0 0 0 0 0 0 0 0 0.25 0"/>
<feBlend mode="normal" in2="BackgroundImageFix" result="effect1_dropShadow_298_104"/>
<feBlend mode="normal" in="SourceGraphic" in2="effect1_dropShadow_298_104" result="shape"/>
</filter>
</defs>
</svg>
